<svg xmlns="http://www.w3.org/2000/svg" width="184" height="25" fill="none" viewBox="0 0 184 25">
  <path fill="#fff" d="M37.435 20V5.455h9.46v2.208H40.07v3.95h6.335v2.208H40.07v3.97h6.882V20h-9.517ZM57.488 9.453c-.066-.62-.346-1.103-.838-1.449-.488-.345-1.122-.518-1.904-.518-.549 0-1.02.083-1.413.248-.393.166-.694.391-.902.675a1.64 1.64 0 0 0-.32.973c0 .303.07.566.207.789.142.222.333.411.575.568.241.151.509.279.802.383.294.104.59.192.888.263l1.364.34a9.505 9.505 0 0 1 1.584.52 5.58 5.58 0 0 1 1.37.823c.407.332.73.732.966 1.2.237.47.355 1.018.355 1.648 0 .852-.218 1.603-.653 2.252-.436.644-1.065 1.148-1.89 1.512-.818.36-1.81.54-2.975.54-1.132 0-2.114-.175-2.948-.525-.828-.35-1.477-.862-1.946-1.535-.464-.672-.715-1.491-.753-2.457h2.593c.038.507.194.928.469 1.264a2.48 2.48 0 0 0 1.072.753 4.24 4.24 0 0 0 1.491.249c.573 0 1.075-.085 1.506-.256.436-.175.777-.417 1.023-.724a1.75 1.75 0 0 0 .376-1.094c-.004-.379-.116-.691-.333-.938-.218-.25-.524-.459-.917-.625a8.827 8.827 0 0 0-1.363-.454l-1.655-.426c-1.198-.308-2.145-.774-2.841-1.4-.691-.63-1.037-1.465-1.037-2.507 0-.857.232-1.607.696-2.251.469-.644 1.106-1.143 1.91-1.499.806-.36 1.717-.54 2.735-.54 1.032 0 1.937.18 2.713.54.781.356 1.394.85 1.84 1.485.445.63.674 1.354.688 2.173h-2.535Zm4.444-1.79V5.455h11.605v2.208h-4.496V20h-2.613V7.663h-4.496ZM75.775 20V5.455h9.318v2.208h-6.684v3.95h6.044v2.208H78.41V20h-2.635Zm11.718 0V5.455h5.568c1.052 0 1.925.165 2.621.497.7.326 1.224.774 1.57 1.342.35.568.525 1.212.525 1.932 0 .592-.113 1.098-.34 1.52a2.867 2.867 0 0 1-.917 1.015 3.87 3.87 0 0 1-1.285.561v.143c.516.028 1.01.187 1.484.475.478.284.869.687 1.172 1.208.303.52.454 1.15.454 1.889 0 .753-.182 1.43-.546 2.031-.365.597-.914 1.068-1.648 1.413-.734.346-1.657.519-2.77.519h-5.888Zm2.635-2.202h2.834c.956 0 1.645-.182 2.067-.547.426-.369.639-.842.639-1.42a2.175 2.175 0 0 0-1.229-1.989c-.393-.203-.861-.305-1.406-.305h-2.905v4.261Zm0-6.157h2.607c.454 0 .864-.083 1.228-.249.365-.17.652-.41.86-.717.213-.313.32-.682.32-1.108 0-.564-.2-1.028-.597-1.392-.393-.365-.978-.547-1.755-.547h-2.663v4.013Zm18.415-2.188c-.067-.62-.346-1.103-.838-1.449-.488-.345-1.123-.518-1.904-.518-.549 0-1.02.083-1.413.248-.393.166-.694.391-.902.675a1.638 1.638 0 0 0-.32.973c0 .303.069.566.206.789a1.9 1.9 0 0 0 .575.568c.242.151.509.279.803.383.294.104.589.192.888.263l1.363.34c.55.129 1.078.302 1.584.52a5.55 5.55 0 0 1 1.371.823c.407.332.729.732.966 1.2.237.47.355 1.018.355 1.648 0 .852-.218 1.603-.653 2.252-.436.644-1.066 1.148-1.89 1.512-.819.36-1.811.54-2.975.54-1.132 0-2.115-.175-2.948-.525-.829-.35-1.477-.862-1.946-1.535-.464-.672-.715-1.491-.753-2.457h2.593c.037.507.194.928.468 1.264a2.48 2.48 0 0 0 1.073.753 4.24 4.24 0 0 0 1.491.249c.573 0 1.075-.085 1.506-.256.436-.175.776-.417 1.023-.724.246-.313.371-.677.376-1.094-.005-.379-.116-.691-.334-.938-.218-.25-.523-.459-.916-.625a8.816 8.816 0 0 0-1.364-.454l-1.654-.426c-1.198-.308-2.145-.774-2.841-1.4-.692-.63-1.037-1.465-1.037-2.507 0-.857.232-1.607.696-2.251.469-.644 1.105-1.143 1.91-1.499.805-.36 1.717-.54 2.735-.54 1.032 0 1.936.18 2.713.54.781.356 1.394.85 1.839 1.485.445.63.675 1.354.689 2.173h-2.535Zm11.582 2.216v2.117h-6.549v-2.117h6.549Zm12.562-1.57a3.792 3.792 0 0 0-.49-1.03 3.174 3.174 0 0 0-.739-.788 2.98 2.98 0 0 0-.98-.49 4.088 4.088 0 0 0-1.207-.17c-.782 0-1.478.196-2.088.59-.611.392-1.092.97-1.442 1.732-.346.758-.519 1.681-.519 2.77 0 1.099.173 2.029.519 2.791.345.763.826 1.343 1.442 1.74.615.393 1.33.59 2.144.59.739 0 1.378-.142 1.918-.426a2.997 2.997 0 0 0 1.257-1.208c.294-.525.44-1.14.44-1.846l.597.092h-3.949v-2.06h5.902v1.748c0 1.245-.265 2.322-.795 3.231a5.44 5.44 0 0 1-2.188 2.102c-.928.488-1.993.732-3.196.732-1.34 0-2.516-.3-3.53-.902-1.008-.606-1.796-1.466-2.365-2.578-.563-1.118-.845-2.443-.845-3.978 0-1.174.166-2.223.497-3.146.336-.923.805-1.707 1.407-2.35a5.976 5.976 0 0 1 2.116-1.478c.81-.34 1.69-.511 2.642-.511.805 0 1.555.118 2.252.355a5.965 5.965 0 0 1 1.853.994c.545.431.992.942 1.343 1.534.35.592.58 1.245.688 1.96h-2.684Zm14.522-4.644h2.635v9.502c0 1.042-.246 1.958-.739 2.749-.487.79-1.174 1.409-2.059 1.854-.886.44-1.92.66-3.104.66-1.188 0-2.225-.22-3.111-.66-.885-.445-1.572-1.063-2.059-1.854-.488-.79-.732-1.707-.732-2.749V5.455h2.635v9.282c0 .606.133 1.146.398 1.62.27.473.648.845 1.136 1.115.488.265 1.066.397 1.733.397.668 0 1.245-.132 1.733-.397.492-.27.871-.642 1.136-1.116.266-.473.398-1.013.398-1.619V5.455Zm8.134 0V20h-2.635V5.455h2.635ZM163.125 20h-4.929V5.455h5.029c1.444 0 2.684.29 3.721.873a5.84 5.84 0 0 1 2.401 2.493c.559 1.084.838 2.382.838 3.892 0 1.515-.282 2.817-.845 3.906a5.843 5.843 0 0 1-2.422 2.507c-1.051.583-2.315.874-3.793.874Zm-2.294-2.28h2.167c1.013 0 1.858-.184 2.535-.554.677-.374 1.186-.93 1.527-1.669.341-.743.511-1.671.511-2.784 0-1.113-.17-2.036-.511-2.77-.341-.738-.845-1.29-1.513-1.655-.663-.369-1.487-.554-2.471-.554h-2.245v9.986ZM172.689 20V5.455h9.46v2.208h-6.825v3.95h6.335v2.208h-6.335v3.97h6.882V20h-9.517Z"/>
  <g clip-path="url(#a)">
    <path fill="#fff" d="M0 25V2.584C0 1.14 1.15 0 2.608 0H23.43c1.419 0 2.607 1.14 2.607 2.584V25L13 16.831 0 25Z"/>
  </g>
  <defs>
    <clipPath id="a">
      <path fill="#fff" d="M0 0h26v25H0z"/>
    </clipPath>
  </defs>
</svg>
