<svg xmlns="http://www.w3.org/2000/svg" width="59" height="59" fill="none" viewBox="0 0 59 59">
  <rect width="58" height="58" x=".266" y=".745" fill="#1CD7AF" rx="10"/>
  <g clip-path="url(#a)">
    <path fill="#FDFBF2" d="m43.163 39.11-1.233-6.953a4.057 4.057 0 0 0-1.167-6.759 11.667 11.667 0 0 0-22.9-.436l-.847 4.783s1.874 0 2.074-.015a14.234 14.234 0 0 0 5.717-1.39 1.731 1.731 0 0 0-.208.822 1.75 1.75 0 1 0 1.91-1.731 19.286 19.286 0 0 0 7.564-8.022 9.292 9.292 0 0 1 4.472 7.01l.091.87.861.156a1.75 1.75 0 0 1-.315 3.467h-1.34l-.257.728c-1.07 3.031-4.668 6.272-8.32 6.272a9.75 9.75 0 0 1-8.166-5.833h-4.495l-1.263 7.134a3.778 3.778 0 0 0 3.701 4.532h6.724v-4.19c1.113.447 2.3.682 3.5.69a9.586 9.586 0 0 0 3.5-.69v4.19h6.722a3.753 3.753 0 0 0 2.987-1.465 3.701 3.701 0 0 0 .688-3.17Z"/>
    <path fill="#FDFBF2" d="M32.182 30.911a1.75 1.75 0 1 0 0-3.5 1.75 1.75 0 0 0 0 3.5Z"/>
  </g>
  <defs>
    <clipPath id="a">
      <path fill="#fff" d="M0 0h28v28H0z" transform="translate(15.266 15.745)"/>
    </clipPath>
  </defs>
</svg>
