<svg xmlns="http://www.w3.org/2000/svg" width="59" height="59" fill="none" viewBox="0 0 59 59">
  <rect width="58" height="58" x=".266" y=".745" fill="#FDC800" rx="10"/>
  <path fill="#fff" d="M35.515 19.539a9.646 9.646 0 0 0-4.684-2.376 9.49 9.49 0 0 0-5.204.452 9.766 9.766 0 0 0-4.23 3.15 10.185 10.185 0 0 0-2.044 4.945c-.208 1.587-.042 3.2.485 4.707a9.99 9.99 0 0 0 2.54 3.945 6.968 6.968 0 0 1 1.675 2.296c.397.876.614 1.827.635 2.794v.18a4.18 4.18 0 0 0 1.172 2.907 3.945 3.945 0 0 0 2.826 1.206h.671a3.945 3.945 0 0 0 2.826-1.206 4.18 4.18 0 0 0 1.172-2.907v-.612a6.074 6.074 0 0 1 .573-2.465c.36-.77.88-1.45 1.52-1.995a10.009 10.009 0 0 0 2.444-3.38 10.27 10.27 0 0 0 .88-4.116 10.275 10.275 0 0 0-.843-4.124 10.02 10.02 0 0 0-2.414-3.403v.002Zm-6.158 21.977h-.671c-.486 0-.951-.2-1.294-.553a1.914 1.914 0 0 1-.537-1.331l-.009-.346h4.342v.346c0 .5-.194.978-.537 1.331a1.807 1.807 0 0 1-1.294.553Zm4.659-8.63a8.583 8.583 0 0 0-2.561 4.17h-1.35v-8.008a3.26 3.26 0 0 0 1.566-1.217 3.412 3.412 0 0 0 .6-1.922c0-.296-.114-.58-.317-.789a1.068 1.068 0 0 0-.766-.326c-.287 0-.563.117-.766.326-.203.21-.317.493-.317.789 0 .295-.114.579-.318.788a1.068 1.068 0 0 1-.766.326c-.287 0-.563-.117-.766-.326a1.132 1.132 0 0 1-.317-.788c0-.296-.114-.58-.317-.789a1.068 1.068 0 0 0-.766-.326c-.288 0-.563.117-.766.326-.203.21-.318.493-.318.789.003.689.213 1.36.6 1.922.389.562.936.987 1.567 1.217v8.009h-1.432a9.666 9.666 0 0 0-2.652-4.327 7.852 7.852 0 0 1-2.174-3.762 8.021 8.021 0 0 1 .136-4.374 7.813 7.813 0 0 1 2.404-3.611 7.475 7.475 0 0 1 3.914-1.712c.298-.034.597-.051.897-.051a7.38 7.38 0 0 1 5.04 1.982 7.79 7.79 0 0 1 1.878 2.647 7.99 7.99 0 0 1-.028 6.408 7.783 7.783 0 0 1-1.902 2.63h-.003Z"/>
</svg>
