<svg xmlns="http://www.w3.org/2000/svg" width="59" height="59" fill="none" viewBox="0 0 59 59">
  <rect width="58" height="58" x=".266" y=".745" fill="#525BF1" rx="10"/>
  <g clip-path="url(#a)">
    <path fill="#fff" d="M32.266 34.37a4.25 4.25 0 1 0-8.5 0v.376h3v-.375a1.25 1.25 0 0 1 2.5 0c0 .625-1.192 1.519-2.15 2.237-1.57 1.178-3.35 2.513-3.35 4.638a1.5 1.5 0 0 0 1.5 1.5h7v-3h-4.3c.31-.254.644-.5.954-.737 1.565-1.178 3.346-2.513 3.346-4.638Zm6-3.625v5h-.75a1.252 1.252 0 0 1-1.25-1.25v-3.75h-3v3.75a4.255 4.255 0 0 0 4.25 4.25h.75v4h3v-12h-3Z"/>
    <path fill="#fff" d="M37.737 22.275a11.978 11.978 0 0 0-18.64 14.812l2.192-2.193a8.985 8.985 0 0 1 7.977-13.148 9.023 9.023 0 0 1 6.353 2.647l-2.353 2.353h5.909a1.09 1.09 0 0 0 1.09-1.091v-5.91l-2.528 2.53Z"/>
  </g>
  <defs>
    <clipPath id="a">
      <path fill="#fff" d="M0 0h24v24H0z" transform="translate(17.266 18.745)"/>
    </clipPath>
  </defs>
</svg>
