<svg width="23" height="25" viewBox="0 0 23 25" fill="none" xmlns="http://www.w3.org/2000/svg">
<path d="M11.5 0.37561C5.15 0.37561 0 5.74952 0 12.3756C0 19.0017 5.15 24.3756 11.5 24.3756C17.85 24.3756 23 19.0017 23 12.3756C23 5.74952 17.85 0.37561 11.5 0.37561ZM12.425 22.2365C12.375 22.2365 12.325 22.2365 12.25 22.2626V16.6017C13.55 16.5756 14.725 16.5495 15.8 16.4713C14.85 19.5234 13.075 21.5582 12.425 22.2365ZM10.575 22.2365C9.9 21.5321 8.15 19.4973 7.2 16.4713C8.25 16.5495 9.45 16.6017 10.75 16.6017V22.2626C10.7 22.2626 10.65 22.2365 10.575 22.2365ZM2 12.3756C2 11.7234 2.075 11.0713 2.175 10.4452C2.725 10.3408 3.775 10.1843 5.25 10.0278C5.125 10.7843 5.05 11.5669 5.05 12.4017C5.05 13.2365 5.125 14.0191 5.225 14.7495C3.775 14.593 2.7 14.4365 2.15 14.3321C2.075 13.68 2 13.0278 2 12.3756ZM6.575 12.3756C6.575 11.4887 6.675 10.6539 6.825 9.87126C7.975 9.793 9.275 9.71474 10.75 9.71474V15.0365C9.3 15.0104 7.975 14.9582 6.8 14.8539C6.675 14.0973 6.575 13.2626 6.575 12.3756ZM12.4 2.51474C13.075 3.21909 14.8 5.30605 15.775 8.27996C14.725 8.2017 13.55 8.14952 12.25 8.14952V2.48865C12.3 2.48865 12.35 2.51474 12.4 2.51474ZM10.75 2.48865V8.14952C9.45 8.17561 8.275 8.2017 7.225 8.27996C8.175 5.30605 9.925 3.21909 10.575 2.51474C10.65 2.51474 10.7 2.48865 10.75 2.48865ZM12.25 15.0365V9.71474C13.7 9.74083 15.025 9.793 16.175 9.87126C16.325 10.6539 16.425 11.4887 16.425 12.3756C16.425 13.2626 16.35 14.0973 16.2 14.88C15.05 14.9582 13.725 15.0104 12.25 15.0365ZM17.725 10.0278C19.2 10.1843 20.25 10.3408 20.8 10.4452C20.925 11.0713 21 11.7234 21 12.3756C21 13.0278 20.925 13.68 20.825 14.306C20.275 14.4104 19.225 14.5669 17.75 14.7234C17.875 13.9669 17.925 13.1843 17.925 12.3495C17.925 11.5669 17.85 10.7582 17.725 10.0278ZM20.35 8.77561C19.65 8.67126 18.65 8.54083 17.375 8.41039C16.775 6.16691 15.725 4.36691 14.85 3.08865C17.375 4.07996 19.375 6.16691 20.35 8.77561ZM8.15 3.08865C7.25 4.34083 6.225 6.14083 5.625 8.38431C4.375 8.48865 3.375 8.64517 2.65 8.74952C3.625 6.16691 5.65 4.07996 8.15 3.08865ZM2.65 15.9756C3.35 16.08 4.35 16.2104 5.6 16.3408C6.2 18.5843 7.2 20.3843 8.1 21.6365C5.6 20.6191 3.625 18.5582 2.65 15.9756ZM14.9 21.6365C15.8 20.3843 16.8 18.6104 17.4 16.3669C18.65 16.2626 19.65 16.106 20.35 16.0017C19.375 18.5582 17.4 20.6191 14.9 21.6365Z" fill="#002147"/>
</svg>
