<svg xmlns="http://www.w3.org/2000/svg" width="1440" height="283" fill="none" viewBox="0 0 1440 283">
  <g clip-path="url(#a)">
    <path fill="#fff" fill-opacity=".5" d="M1250.1 303.29c-16.03-10.133-35.64-20.501-59.54-20.501s-43.54 10.368-59.55 20.501l-.73-1.545c16.2-10.238 36.04-20.711 60.28-20.711 24.24 0 44.07 10.473 60.27 20.711l-.73 1.545Zm327.89-.023c-23.15-15.856-47.1-32.249-77.17-32.249-30.08 0-54.02 16.382-77.18 32.249l-.77-1.51c23.29-15.972 47.45-32.495 77.97-32.495 30.52 0 54.62 16.523 77.97 32.495l-.82 1.51Z"/>
    <path fill="#fff" fill-opacity=".5" d="M1267.73 303.267c-23.16-15.856-47.09-32.249-77.17-32.249-30.07 0-54.02 16.382-77.18 32.249l-.77-1.51c23.29-15.972 47.45-32.495 77.97-32.495 30.52 0 54.61 16.523 77.97 32.495l-.82 1.51Zm327.93.023c-5.95-3.768-11.91-7.851-17.67-11.795-23.15-15.879-47.05-32.261-77.17-32.261-30.12 0-54.02 16.382-77.22 32.261-5.76 3.944-11.71 8.027-17.67 11.795l-.73-1.544c5.93-3.757 11.88-7.829 17.63-11.76 23.29-15.973 47.45-32.495 77.97-32.495 30.52 0 54.62 16.522 77.97 32.495 5.74 3.943 11.69 8.003 17.62 11.76l-.73 1.544Z"/>
    <path fill="#fff" fill-opacity=".5" d="M1285.4 303.29c-5.95-3.768-11.9-7.851-17.67-11.795-23.15-15.879-47.09-32.261-77.17-32.261-30.07 0-54.02 16.382-77.18 32.249-5.75 3.944-11.71 8.028-17.67 11.796l-.73-1.545c5.93-3.756 11.88-7.828 17.63-11.76 23.29-15.972 47.45-32.495 77.97-32.495 30.52 0 54.62 16.523 77.97 32.495 5.75 3.932 11.69 8.004 17.62 11.76l-.77 1.556Zm331.75.047c-13.75-6.213-26.66-15.06-39.15-23.613-23.16-15.809-47.06-32.191-77.18-32.191-30.12 0-54.02 16.382-77.22 32.191-12.49 8.553-25.41 17.4-39.16 23.613l-.56-1.638c13.68-6.19 26.55-14.966 38.99-23.485 23.29-15.984 47.45-32.495 77.97-32.495 30.52 0 54.62 16.523 77.97 32.495 12.44 8.519 25.32 17.33 38.94 23.485l-.6 1.638Z"/>
    <path fill="#fff" fill-opacity=".5" d="M1306.9 303.337c-13.76-6.214-26.67-15.06-39.17-23.613-23.15-15.809-47.09-32.191-77.17-32.191-30.07 0-54.02 16.382-77.18 32.249-12.41 8.437-25.24 17.224-38.9 23.426l-.54-1.626c13.54-6.155 26.33-14.908 38.67-23.403 23.29-15.984 47.45-32.495 77.97-32.495 30.52 0 54.62 16.523 77.97 32.495 12.44 8.519 25.32 17.33 38.94 23.485l-.59 1.673Z"/>
    <path fill="#fff" fill-opacity=".5" d="M1345.69 300.447c-30.51 0-54.63-16.523-77.98-32.495-23.15-15.855-47.09-32.261-77.17-32.261-30.07 0-54.02 16.382-77.18 32.261-12.39 8.495-25.22 17.283-38.88 23.485l-.54-1.639c13.54-6.143 26.33-14.895 38.67-23.402 23.29-15.984 47.45-32.507 77.97-32.507 30.52 0 54.62 16.523 77.97 32.507 23.15 15.855 47.09 32.249 77.18 32.249 30.08 0 54.02-16.382 77.18-32.249 23.29-15.984 47.45-32.507 77.97-32.507v1.755c-30.08 0-54.02 16.382-77.18 32.261-23.39 16.019-47.51 32.542-78.01 32.542Z"/>
    <path fill="#fff" fill-opacity=".5" d="M1345.69 288.675c-30.51 0-54.63-16.522-77.98-32.495-23.15-15.867-47.09-32.26-77.17-32.26-30.07 0-54.02 16.382-77.18 32.26-12.39 8.496-25.22 17.283-38.88 23.485l-.54-1.638c13.54-6.143 26.33-14.896 38.67-23.403 23.29-15.984 47.45-32.506 77.97-32.506 30.52 0 54.62 16.522 77.97 32.506 23.15 15.855 47.09 32.249 77.18 32.249 30.08 0 54.02-16.382 77.18-32.249 23.29-15.984 47.45-32.506 77.97-32.506v1.755c-30.08 0-54.02 16.382-77.18 32.261-23.39 15.972-47.51 32.541-78.01 32.541Z"/>
    <path fill="#fff" fill-opacity=".5" d="M1345.69 276.903c-30.51 0-54.63-16.522-77.98-32.494-23.15-15.867-47.09-32.261-77.17-32.261-30.07 0-54.02 16.382-77.18 32.249-12.39 8.507-25.22 17.295-38.88 23.496l-.54-1.638c13.54-6.155 26.33-14.896 38.67-23.403 23.29-15.972 47.45-32.494 77.97-32.494 30.52 0 54.62 16.522 77.97 32.494 23.15 15.868 47.09 32.261 77.18 32.261 30.08 0 54.02-16.382 77.18-32.261 23.29-15.972 47.45-32.494 77.97-32.494v1.755c-30.08 0-54.02 16.382-77.18 32.261-23.39 16.031-47.51 32.529-78.01 32.529Z"/>
    <path fill="#fff" fill-opacity=".5" d="M1345.69 265.085c-30.51 0-54.63-16.522-77.98-32.506-23.15-15.856-47.09-32.249-77.17-32.249-30.07 0-54.02 16.382-77.18 32.249-12.39 8.542-25.22 17.294-38.88 23.531l-.54-1.626c13.54-6.155 26.33-14.908 38.67-23.403 23.29-15.973 47.45-32.495 77.97-32.495 30.52 0 54.62 16.522 77.97 32.495 23.15 15.855 47.09 32.261 77.18 32.261 30.08 0 54.02-16.382 77.18-32.261 23.29-15.973 47.45-32.495 77.97-32.495v1.755c-30.08 0-54.02 16.382-77.18 32.249-23.39 16.02-47.51 32.495-78.01 32.495Z"/>
    <path fill="#fff" fill-opacity=".5" d="M1345.69 253.384c-30.51 0-54.63-16.523-77.98-32.507-23.15-15.855-47.09-32.249-77.17-32.249-30.07 0-54.02 16.382-77.18 32.249-12.39 8.472-25.22 17.295-38.88 23.462l-.54-1.627c13.54-6.155 26.33-14.907 38.67-23.403 23.29-15.972 47.45-32.494 77.97-32.494 30.52 0 54.62 16.522 77.97 32.494 23.15 15.856 47.09 32.261 77.18 32.261 30.08 0 54.02-16.382 77.18-32.261 23.29-15.972 47.45-32.494 77.97-32.494v1.755c-30.08 0-54.02 16.382-77.18 32.249-23.39 16.019-47.51 32.565-78.01 32.565Z"/>
    <path fill="#fff" fill-opacity=".5" d="M1345.69 241.577c-30.51 0-54.63-16.522-77.98-32.495-23.15-15.855-47.09-32.26-77.17-32.26-30.07 0-54.02 16.382-77.18 32.26-12.39 8.496-25.22 17.283-38.88 23.485l-.54-1.626c13.54-6.155 26.33-14.908 38.67-23.403 23.29-15.984 47.45-32.507 77.97-32.507 30.52 0 54.62 16.523 77.97 32.507 23.15 15.855 47.09 32.249 77.18 32.249 30.08 0 54.02-16.382 77.18-32.249 23.29-15.984 47.45-32.507 77.97-32.507v1.755c-30.08 0-54.02 16.382-77.18 32.261-23.39 16.008-47.51 32.53-78.01 32.53Z"/>
    <path fill="#fff" fill-opacity=".5" d="M1345.69 229.805c-30.51 0-54.63-16.522-77.98-32.494-23.15-15.856-47.09-32.261-77.17-32.261-30.07 0-54.02 16.382-77.18 32.261-12.39 8.495-25.22 17.283-38.88 23.484l-.54-1.638c13.54-6.143 26.33-14.896 38.67-23.403 23.29-15.984 47.45-32.506 77.97-32.506 30.52 0 54.62 16.522 77.97 32.506 23.15 15.856 47.09 32.249 77.18 32.249 30.08 0 54.02-16.382 77.18-32.249 23.29-15.984 47.45-32.506 77.97-32.506v1.755c-30.08 0-54.02 16.382-77.18 32.261-23.39 16.019-47.51 32.541-78.01 32.541Z"/>
    <path fill="#fff" fill-opacity=".5" d="M1345.69 218.034c-30.51 0-54.63-16.523-77.98-32.495-23.15-15.867-47.09-32.261-77.17-32.261-30.07 0-54.02 16.382-77.18 32.261-12.39 8.495-25.22 17.283-38.88 23.485l-.54-1.638c13.54-6.155 26.33-14.896 38.67-23.403 23.29-15.973 47.45-32.495 77.97-32.495 30.52 0 54.62 16.522 77.97 32.495 23.15 15.867 47.09 32.261 77.18 32.261 30.08 0 54.02-16.382 77.18-32.261 23.29-15.973 47.45-32.495 77.97-32.495v1.755c-30.08 0-54.02 16.382-77.18 32.261-23.39 16.007-47.51 32.53-78.01 32.53Z"/>
    <path fill="#fff" fill-opacity=".5" d="M1345.69 206.262c-30.51 0-54.63-16.522-77.98-32.506-23.15-15.856-47.09-32.249-77.17-32.249-30.07 0-54 16.393-77.16 32.307-12.41 8.449-25.24 17.236-38.9 23.403l-.54-1.638c13.54-6.155 26.33-14.908 38.67-23.403 23.29-15.972 47.45-32.495 77.97-32.495 30.52 0 54.62 16.523 77.97 32.495 23.15 15.867 47.09 32.261 77.18 32.261 30.08 0 54.02-16.382 77.18-32.261 23.29-15.972 47.45-32.495 77.97-32.495v1.756c-30.08 0-54.02 16.381-77.18 32.249-23.39 16.054-47.51 32.576-78.01 32.576Z"/>
    <path fill="#fff" fill-opacity=".5" d="M1345.69 194.491c-30.51 0-54.63-16.523-77.98-32.507-23.15-15.855-47.09-32.249-77.17-32.249-30.07 0-54.02 16.382-77.18 32.249-12.39 8.495-25.22 17.283-38.88 23.532l-.54-1.627c13.54-6.155 26.33-14.907 38.67-23.403 23.29-15.972 47.45-32.494 77.97-32.494 30.52 0 54.62 16.522 77.97 32.494 23.15 15.856 47.09 32.261 77.18 32.261 30.08 0 54.02-16.382 77.18-32.261 23.29-15.972 47.45-32.494 77.97-32.494v1.755c-30.08 0-54.02 16.382-77.18 32.249-23.39 15.972-47.51 32.495-78.01 32.495Z"/>
    <path fill="#fff" fill-opacity=".5" d="M1345.69 182.719c-30.51 0-54.63-16.522-77.98-32.506-23.15-15.856-47.09-32.249-77.17-32.249-30.07 0-54.02 16.381-77.18 32.249-12.39 8.495-25.22 17.282-38.88 23.484l-.54-1.626c13.54-6.155 26.33-14.908 38.67-23.403 23.29-15.984 47.45-32.495 77.97-32.495 30.52 0 54.62 16.523 77.97 32.495 23.15 15.855 47.09 32.261 77.18 32.261 30.08 0 54.02-16.382 77.18-32.261 23.29-15.972 47.45-32.495 77.97-32.495v1.755c-30.08 0-54.02 16.382-77.18 32.249-23.39 16.02-47.51 32.542-78.01 32.542Z"/>
    <path fill="#fff" fill-opacity=".5" d="M1345.69 170.936c-30.51 0-54.63-16.523-77.98-32.495-23.15-15.855-47.09-32.261-77.17-32.261-30.07 0-54.02 16.382-77.18 32.261-12.39 8.46-25.22 17.283-38.88 23.485l-.54-1.639c13.54-6.143 26.33-14.895 38.67-23.402 23.29-15.984 47.45-32.507 77.97-32.507 30.52 0 54.62 16.523 77.97 32.507 23.11 15.867 47.05 32.249 77.14 32.249 30.08 0 54.02-16.382 77.18-32.249 23.29-15.984 47.45-32.507 77.97-32.507v1.755c-30.09 0-54.02 16.382-77.18 32.261-23.35 16.019-47.47 32.542-77.97 32.542Z"/>
    <path fill="#fff" fill-opacity=".5" d="M1345.69 159.164c-30.51 0-54.63-16.522-77.98-32.495-23.15-15.855-47.09-32.26-77.17-32.26-30.07 0-54.02 16.382-77.18 32.26-12.39 8.531-25.22 17.283-38.88 23.485l-.54-1.638c13.54-6.143 26.33-14.896 38.67-23.403 23.29-15.984 47.45-32.506 77.97-32.506 30.52 0 54.62 16.522 77.97 32.506 23.11 15.937 47.05 32.319 77.14 32.319 30.08 0 54.02-16.382 77.18-32.249 23.29-15.984 47.45-32.506 77.97-32.506v1.755c-30.09 0-54.02 16.382-77.18 32.261-23.35 15.949-47.47 32.471-77.97 32.471Z"/>
    <path fill="#fff" fill-opacity=".5" d="M1345.69 147.393c-30.51 0-54.63-16.523-77.98-32.507-23.15-15.855-47.09-32.249-77.17-32.249-30.07 0-54.02 16.382-77.18 32.249-12.39 8.507-25.22 17.295-38.88 23.496l-.54-1.638c13.54-6.155 26.33-14.896 38.67-23.402 23.29-15.973 47.45-32.495 77.97-32.495 30.52 0 54.62 16.522 77.97 32.495 23.15 15.867 47.09 32.26 77.18 32.26 30.08 0 54.02-16.382 77.18-32.26 23.29-15.973 47.45-32.495 77.97-32.495v1.755c-30.08 0-54.02 16.382-77.18 32.249-23.39 16.019-47.51 32.542-78.01 32.542Z"/>
    <path fill="#fff" fill-opacity=".5" d="M1345.69 135.621c-30.51 0-54.63-16.522-77.98-32.507-23.13-15.89-47.07-32.272-77.15-32.272-30.07 0-54.02 16.382-77.18 32.249-12.41 8.53-25.24 17.306-38.9 23.52l-.54-1.638c13.54-6.155 26.33-14.908 38.67-23.403 23.29-15.972 47.45-32.495 77.97-32.495 30.52 0 54.62 16.522 77.97 32.495 23.15 15.855 47.09 32.261 77.18 32.261 30.08 0 54.02-16.382 77.18-32.261 23.29-15.972 47.45-32.495 77.97-32.495v1.767c-30.08 0-54.02 16.382-77.18 32.249-23.39 16.008-47.51 32.53-78.01 32.53Z"/>
    <path fill="#fff" fill-opacity=".5" d="M1345.69 123.849c-30.51 0-54.63-16.522-77.98-32.506-23.13-15.82-47.07-32.202-77.15-32.202-30.07 0-54.02 16.382-77.18 32.249-12.41 8.448-25.24 17.236-38.9 23.438l-.54-1.627c13.54-6.155 26.33-14.907 38.67-23.403 23.29-15.972 47.45-32.494 77.97-32.494 30.52 0 54.62 16.522 77.97 32.494 23.15 15.856 47.09 32.261 77.18 32.261 30.08 0 54.02-16.382 77.18-32.26 23.29-15.973 47.45-32.495 77.97-32.495v1.837c-30.08 0-54.02 16.382-77.18 32.249-23.39 15.937-47.51 32.459-78.01 32.459Z"/>
    <path fill="#fff" fill-opacity=".5" d="M1345.69 112.066c-30.51 0-54.63-16.51-77.98-32.495-23.15-15.855-47.09-32.26-77.17-32.26-30.07 0-54.02 16.382-77.18 32.26-12.39 8.496-25.22 17.283-38.88 23.485l-.54-1.627c13.54-6.154 26.33-14.907 38.67-23.402 23.29-15.984 47.45-32.507 77.97-32.507 30.52 0 54.62 16.523 77.97 32.507 23.15 15.855 47.09 32.249 77.18 32.249 30.08 0 54.02-16.382 77.18-32.25 23.29-15.983 47.45-32.506 77.97-32.506v1.755c-30.08 0-54.02 16.382-77.18 32.261-23.39 16.02-47.51 32.53-78.01 32.53Z"/>
    <path fill="#fff" fill-opacity=".5" d="M1345.69 100.294c-30.51 0-54.63-16.522-77.98-32.494-23.15-15.856-47.09-32.261-77.17-32.261-30.07 0-54.02 16.382-77.18 32.26-12.39 8.496-25.22 17.284-38.88 23.485l-.54-1.638c13.54-6.143 26.33-14.896 38.67-23.403 23.29-15.984 47.45-32.506 77.97-32.506 30.52 0 54.62 16.522 77.97 32.506 23.15 15.856 47.09 32.25 77.18 32.25 30.08 0 54.02-16.382 77.18-32.25 23.29-15.984 47.45-32.506 77.97-32.506v1.755c-30.08 0-54.02 16.382-77.18 32.26-23.39 16.02-47.51 32.542-78.01 32.542Z"/>
    <path fill="#fff" fill-opacity=".5" d="M1345.69 88.523c-30.51 0-54.63-16.522-77.98-32.495-23.15-15.867-47.09-32.26-77.17-32.26-30.07 0-54.02 16.381-77.18 32.26-12.39 8.495-25.22 17.283-38.88 23.485l-.54-1.65c13.54-6.143 26.33-14.896 38.67-23.403 23.29-15.972 47.45-32.495 77.97-32.495 30.52 0 54.62 16.523 77.97 32.507 23.15 15.855 47.09 32.249 77.18 32.249 30.08 0 54.02-16.382 77.18-32.25 23.29-15.983 47.45-32.506 77.97-32.506v1.756c-30.08 0-54.02 16.381-77.18 32.26-23.39 16.031-47.51 32.542-78.01 32.542Z"/>
    <path fill="#fff" fill-opacity=".5" d="M1345.69 76.751c-30.51 0-54.63-16.522-77.98-32.506-23.15-15.856-47.09-32.25-77.17-32.25-30.07 0-54.02 16.383-77.18 32.25-12.39 8.507-25.22 17.294-38.88 23.496l-.54-1.58c13.54-6.154 26.33-14.895 38.67-23.402 23.29-15.973 47.45-32.495 77.97-32.495 30.52 0 54.62 16.522 77.97 32.495 23.15 15.867 47.09 32.26 77.18 32.26 30.08 0 54.02-16.382 77.18-32.26 23.29-15.973 47.45-32.495 77.97-32.495v1.755c-30.08 0-54.02 16.382-77.18 32.25-23.39 15.96-47.51 32.482-78.01 32.482Z"/>
    <path fill="#fff" fill-opacity=".5" d="M1345.69 64.991c-30.51 0-54.63-16.522-77.98-32.506-23.15-15.855-47.09-32.25-77.17-32.25-30.07 0-54.02 16.383-77.18 32.25-12.39 8.483-25.22 17.294-38.88 23.473l-.54-1.627c13.54-6.155 26.33-14.907 38.67-23.402 23.29-15.973 47.45-32.495 77.97-32.495 30.52 0 54.62 16.522 77.97 32.495 23.15 15.855 47.09 32.26 77.18 32.26 30.08 0 54.02-16.382 77.18-32.26 23.29-15.973 47.45-32.495 77.97-32.495V.189c-30.08 0-54.02 16.382-77.18 32.25-23.39 16.018-47.51 32.552-78.01 32.552Z"/>
    <path fill="#fff" fill-opacity=".5" d="M1345.69 53.208c-30.51 0-54.63-16.522-77.98-32.506-23.15-15.856-47.09-32.25-77.17-32.25-30.07 0-54.02 16.383-77.18 32.25-12.39 8.495-25.22 17.283-38.88 23.484l-.54-1.626c13.54-6.155 26.33-14.908 38.67-23.403 23.29-15.972 47.45-32.495 77.97-32.495 30.52 0 54.62 16.523 77.97 32.495 23.15 15.855 47.09 32.26 77.18 32.26 30.08 0 54.02-16.381 77.18-32.26 23.29-15.972 47.45-32.495 77.97-32.495v1.755c-30.08 0-54.02 16.382-77.18 32.25-23.39 16.019-47.51 32.541-78.01 32.541Z"/>
    <path fill="#fff" fill-opacity=".5" d="M1345.69 41.425c-30.51 0-54.63-16.523-77.98-32.495-23.15-15.855-47.09-32.26-77.17-32.26-30.07 0-54.02 16.381-77.18 32.26-12.39 8.495-25.22 17.283-38.88 23.485l-.54-1.627c13.54-6.155 26.33-14.907 38.67-23.403 23.29-15.984 47.45-32.506 77.97-32.506 30.52 0 54.62 16.522 77.97 32.506 23.15 15.856 47.09 32.25 77.18 32.25 30.08 0 54.02-16.382 77.18-32.25 23.29-15.984 47.45-32.506 77.97-32.506v1.755c-30.08 0-54.02 16.382-77.18 32.26-23.39 16.008-47.51 32.53-78.01 32.53Z"/>
    <path fill="#fff" fill-opacity=".5" d="M1345.69 29.653c-30.51 0-54.63-16.522-77.98-32.495-23.15-15.855-47.09-32.26-77.17-32.26-30.07 0-54 16.405-77.16 32.225-12.41 8.53-25.24 17.318-38.9 23.52l-.54-1.638c13.54-6.143 26.33-14.896 38.67-23.403 23.29-15.984 47.45-32.506 77.97-32.506 30.52 0 54.62 16.522 77.97 32.506 23.15 15.855 47.09 32.25 77.18 32.25 30.08 0 54.02-16.383 77.18-32.25 23.29-15.984 47.45-32.506 77.97-32.506v1.755c-30.08 0-54.02 16.382-77.18 32.26-23.39 16.02-47.51 32.542-78.01 32.542Z"/>
    <path fill="#fff" fill-opacity=".5" d="M1345.69 17.881c-30.51 0-54.63-16.522-77.98-32.494-23.13-15.867-47.07-32.26-77.15-32.26-30.07 0-54.02 16.393-77.18 32.295-12.41 8.46-25.24 17.248-38.9 23.403l-.54-1.639c13.54-6.143 26.33-14.895 38.67-23.402 23.33-15.914 47.45-32.413 77.95-32.413s54.62 16.522 77.97 32.506c23.15 15.856 47.09 32.25 77.18 32.25 30.08 0 54.02-16.383 77.18-32.25 23.29-15.984 47.45-32.506 77.97-32.506v1.755c-30.09 0-54.02 16.382-77.18 32.26-23.37 15.973-47.49 32.495-77.99 32.495Z"/>
    <path fill="#fff" fill-opacity=".5" d="M1345.69 6.11c-30.51 0-54.63-16.522-77.98-32.506-23.13-15.856-47.07-32.25-77.15-32.25-30.07 0-54.02 16.382-77.18 32.25-12.41 8.506-25.24 17.294-38.9 23.52l-.54-1.639c13.54-6.155 26.33-14.896 38.67-23.403 23.29-15.972 47.45-32.494 77.97-32.494 30.52 0 54.62 16.522 77.97 32.494 23.15 15.867 47.09 32.261 77.18 32.261 30.08 0 54.02-16.382 77.18-32.26 23.29-15.973 47.45-32.495 77.97-32.495v1.755c-30.08 0-54.02 16.382-77.18 32.249-23.39 15.996-47.51 32.518-78.01 32.518Z"/>
  </g>
  <g clip-path="url(#b)">
    <path fill="#fff" fill-opacity=".5" d="M757.362 303.29c-16.03-10.133-35.644-20.501-59.542-20.501-23.898 0-43.543 10.368-59.553 20.501l-.729-1.545c16.202-10.238 36.039-20.711 60.282-20.711 24.242 0 44.069 10.473 60.271 20.711l-.729 1.545Zm-310.259 0c-16.029-10.133-35.644-20.501-59.542-20.501-23.898 0-43.543 10.368-59.553 20.501l-.729-1.545c16.202-10.238 36.04-20.711 60.282-20.711 24.242 0 44.07 10.473 60.272 20.711l-.73 1.545Z"/>
    <path fill="#fff" fill-opacity=".5" d="M774.992 303.267c-23.149-15.856-47.097-32.249-77.172-32.249-30.075 0-54.024 16.382-77.183 32.249l-.769-1.51c23.29-15.972 47.451-32.495 77.972-32.495 30.52 0 54.621 16.523 77.972 32.495l-.82 1.51Zm-310.259 0c-23.158-15.856-47.097-32.249-77.172-32.249-30.075 0-54.024 16.382-77.182 32.249l-.77-1.51c23.29-15.972 47.452-32.495 77.972-32.495 30.521 0 54.611 16.523 77.973 32.495l-.821 1.51Z"/>
    <path fill="#fff" fill-opacity=".5" d="M792.662 303.29c-5.954-3.768-11.908-7.851-17.67-11.795-23.149-15.879-47.057-32.261-77.172-32.261-30.116 0-54.024 16.382-77.223 32.261-5.752 3.944-11.706 8.027-17.671 11.795l-.729-1.544c5.934-3.757 11.878-7.829 17.63-11.76 23.29-15.973 47.452-32.495 77.972-32.495 30.521 0 54.621 16.522 77.973 32.495 5.741 3.943 11.685 8.003 17.619 11.76l-.729 1.544Zm-310.258 0c-5.955-3.768-11.909-7.851-17.671-11.795-23.148-15.879-47.097-32.261-77.172-32.261-30.075 0-54.024 16.382-77.182 32.249-5.752 3.944-11.706 8.028-17.671 11.796l-.729-1.545c5.934-3.756 11.878-7.828 17.63-11.76 23.29-15.972 47.452-32.495 77.972-32.495 30.521 0 54.621 16.523 77.972 32.495 5.742 3.932 11.686 8.004 17.62 11.76l-.769 1.556Z"/>
    <path fill="#fff" fill-opacity=".5" d="M814.15 303.337c-13.751-6.213-26.662-15.06-39.148-23.613-23.159-15.809-47.067-32.191-77.182-32.191-30.116 0-54.024 16.382-77.223 32.191-12.486 8.553-25.407 17.4-39.159 23.613l-.556-1.638c13.68-6.19 26.551-14.966 38.986-23.485 23.29-15.984 47.451-32.495 77.972-32.495 30.52 0 54.621 16.523 77.972 32.495 12.435 8.519 25.316 17.33 38.936 23.485l-.598 1.638Zm-310.248 0c-13.762-6.214-26.673-15.06-39.169-23.613-23.148-15.809-47.097-32.191-77.172-32.191-30.075 0-54.024 16.382-77.182 32.249-12.405 8.437-25.235 17.224-38.895 23.426l-.547-1.626c13.539-6.155 26.328-14.908 38.672-23.403 23.29-15.984 47.452-32.495 77.972-32.495 30.521 0 54.621 16.523 77.973 32.495 12.435 8.519 25.315 17.33 38.935 23.485l-.587 1.673Z"/>
    <path fill="#fff" fill-opacity=".5" d="M542.685 300.447c-30.5 0-54.621-16.523-77.972-32.495-23.149-15.855-47.097-32.261-77.172-32.261-30.075 0-54.024 16.382-77.183 32.261-12.384 8.495-25.214 17.283-38.874 23.485l-.547-1.639c13.539-6.143 26.328-14.895 38.672-23.402 23.29-15.984 47.452-32.507 77.972-32.507 30.521 0 54.621 16.523 77.973 32.507 23.148 15.855 47.087 32.249 77.172 32.249 30.085 0 54.023-16.382 77.182-32.249 23.291-15.984 47.452-32.507 77.972-32.507v1.755c-30.085 0-54.023 16.382-77.182 32.261-23.392 16.019-47.512 32.542-78.013 32.542Z"/>
    <path fill="#fff" fill-opacity=".5" d="M542.685 288.675c-30.5 0-54.621-16.522-77.972-32.495-23.149-15.867-47.097-32.26-77.172-32.26-30.075 0-54.024 16.382-77.183 32.26-12.384 8.496-25.214 17.283-38.874 23.485l-.547-1.638c13.539-6.143 26.328-14.896 38.672-23.403 23.29-15.984 47.452-32.506 77.972-32.506 30.521 0 54.621 16.522 77.973 32.506 23.148 15.855 47.087 32.249 77.172 32.249 30.085 0 54.023-16.382 77.182-32.249 23.291-15.984 47.452-32.506 77.972-32.506v1.755c-30.085 0-54.023 16.382-77.182 32.261-23.392 15.972-47.512 32.541-78.013 32.541Z"/>
    <path fill="#fff" fill-opacity=".5" d="M542.685 276.903c-30.5 0-54.621-16.522-77.972-32.494-23.149-15.867-47.097-32.261-77.172-32.261-30.075 0-54.024 16.382-77.183 32.249-12.384 8.507-25.214 17.295-38.874 23.496l-.547-1.638c13.539-6.155 26.328-14.896 38.672-23.403 23.29-15.972 47.452-32.494 77.972-32.494 30.521 0 54.621 16.522 77.973 32.494 23.148 15.868 47.087 32.261 77.172 32.261 30.085 0 54.023-16.382 77.182-32.261 23.291-15.972 47.452-32.494 77.972-32.494v1.755c-30.085 0-54.023 16.382-77.182 32.261-23.392 16.031-47.512 32.529-78.013 32.529Z"/>
    <path fill="#fff" fill-opacity=".5" d="M542.685 265.085c-30.5 0-54.621-16.522-77.972-32.506-23.149-15.856-47.097-32.249-77.172-32.249-30.075 0-54.024 16.382-77.183 32.249-12.384 8.542-25.214 17.294-38.874 23.531l-.547-1.626c13.539-6.155 26.328-14.908 38.672-23.403 23.29-15.973 47.452-32.495 77.972-32.495 30.521 0 54.621 16.522 77.973 32.495 23.148 15.855 47.087 32.261 77.172 32.261 30.085 0 54.023-16.382 77.182-32.261 23.291-15.973 47.452-32.495 77.972-32.495v1.755c-30.085 0-54.023 16.382-77.182 32.249-23.392 16.02-47.512 32.495-78.013 32.495Z"/>
    <path fill="#fff" fill-opacity=".5" d="M542.685 253.384c-30.5 0-54.621-16.523-77.972-32.507-23.149-15.855-47.097-32.249-77.172-32.249-30.075 0-54.024 16.382-77.183 32.249-12.384 8.472-25.214 17.295-38.874 23.462l-.547-1.627c13.539-6.155 26.328-14.907 38.672-23.403 23.29-15.972 47.452-32.494 77.972-32.494 30.521 0 54.621 16.522 77.973 32.494 23.148 15.856 47.087 32.261 77.172 32.261 30.085 0 54.023-16.382 77.182-32.261 23.291-15.972 47.452-32.494 77.972-32.494v1.755c-30.085 0-54.023 16.382-77.182 32.249-23.392 16.019-47.512 32.565-78.013 32.565Z"/>
    <path fill="#fff" fill-opacity=".5" d="M542.685 241.577c-30.5 0-54.621-16.522-77.972-32.495-23.149-15.855-47.097-32.26-77.172-32.26-30.075 0-54.024 16.382-77.183 32.26-12.384 8.496-25.214 17.283-38.874 23.485l-.547-1.626c13.539-6.155 26.328-14.908 38.672-23.403 23.29-15.984 47.452-32.507 77.972-32.507 30.521 0 54.621 16.523 77.973 32.507 23.148 15.855 47.087 32.249 77.172 32.249 30.085 0 54.023-16.382 77.182-32.249 23.291-15.984 47.452-32.507 77.972-32.507v1.755c-30.085 0-54.023 16.382-77.182 32.261-23.392 16.008-47.512 32.53-78.013 32.53Z"/>
    <path fill="#fff" fill-opacity=".5" d="M542.685 229.805c-30.5 0-54.621-16.522-77.972-32.494-23.149-15.856-47.097-32.261-77.172-32.261-30.075 0-54.024 16.382-77.183 32.261-12.384 8.495-25.214 17.283-38.874 23.484l-.547-1.638c13.539-6.143 26.328-14.896 38.672-23.403 23.29-15.984 47.452-32.506 77.972-32.506 30.521 0 54.621 16.522 77.973 32.506 23.148 15.856 47.087 32.249 77.172 32.249 30.085 0 54.023-16.382 77.182-32.249 23.291-15.984 47.452-32.506 77.972-32.506v1.755c-30.085 0-54.023 16.382-77.182 32.261-23.392 16.019-47.512 32.541-78.013 32.541Z"/>
    <path fill="#fff" fill-opacity=".5" d="M542.685 218.034c-30.5 0-54.621-16.523-77.972-32.495-23.149-15.867-47.097-32.261-77.172-32.261-30.075 0-54.024 16.382-77.183 32.261-12.384 8.495-25.214 17.283-38.874 23.485l-.547-1.638c13.539-6.155 26.328-14.896 38.672-23.403 23.29-15.973 47.452-32.495 77.972-32.495 30.521 0 54.621 16.522 77.973 32.495 23.148 15.867 47.087 32.261 77.172 32.261 30.085 0 54.023-16.382 77.182-32.261 23.291-15.973 47.452-32.495 77.972-32.495v1.755c-30.085 0-54.023 16.382-77.182 32.261-23.392 16.007-47.512 32.53-78.013 32.53Z"/>
    <path fill="#fff" fill-opacity=".5" d="M542.685 206.262c-30.5 0-54.621-16.522-77.972-32.506-23.149-15.856-47.097-32.249-77.172-32.249-30.075 0-54.004 16.393-77.162 32.307-12.405 8.449-25.235 17.236-38.895 23.403l-.547-1.638c13.539-6.155 26.328-14.908 38.672-23.403 23.29-15.972 47.452-32.495 77.972-32.495 30.521 0 54.621 16.523 77.973 32.495 23.148 15.867 47.087 32.261 77.172 32.261 30.085 0 54.023-16.382 77.182-32.261 23.291-15.972 47.452-32.495 77.972-32.495v1.756c-30.085 0-54.023 16.381-77.182 32.249-23.392 16.054-47.512 32.576-78.013 32.576Z"/>
    <path fill="#fff" fill-opacity=".5" d="M542.685 194.491c-30.5 0-54.621-16.523-77.972-32.507-23.149-15.855-47.097-32.249-77.172-32.249-30.075 0-54.024 16.382-77.183 32.249-12.384 8.495-25.214 17.283-38.874 23.532l-.547-1.627c13.539-6.155 26.328-14.907 38.672-23.403 23.29-15.972 47.452-32.494 77.972-32.494 30.521 0 54.621 16.522 77.973 32.494 23.148 15.856 47.087 32.261 77.172 32.261 30.085 0 54.023-16.382 77.182-32.261 23.291-15.972 47.452-32.494 77.972-32.494v1.755c-30.085 0-54.023 16.382-77.182 32.249-23.392 15.972-47.512 32.495-78.013 32.495Z"/>
    <path fill="#fff" fill-opacity=".5" d="M542.685 182.719c-30.5 0-54.621-16.522-77.972-32.506-23.149-15.856-47.097-32.249-77.172-32.249-30.075 0-54.024 16.381-77.183 32.249-12.384 8.495-25.214 17.282-38.874 23.484l-.547-1.626c13.539-6.155 26.328-14.908 38.672-23.403 23.29-15.984 47.452-32.495 77.972-32.495 30.521 0 54.621 16.523 77.973 32.495 23.148 15.855 47.087 32.261 77.172 32.261 30.085 0 54.023-16.382 77.182-32.261 23.291-15.972 47.452-32.495 77.972-32.495v1.755c-30.085 0-54.023 16.382-77.182 32.249-23.392 16.02-47.512 32.542-78.013 32.542Z"/>
    <path fill="#fff" fill-opacity=".5" d="M542.685 170.936c-30.5 0-54.621-16.523-77.972-32.495-23.149-15.855-47.097-32.261-77.172-32.261-30.075 0-54.024 16.382-77.183 32.261-12.384 8.46-25.214 17.283-38.874 23.485l-.547-1.639c13.539-6.143 26.328-14.895 38.672-23.402 23.29-15.984 47.452-32.507 77.972-32.507 30.521 0 54.621 16.523 77.973 32.507 23.108 15.867 47.046 32.249 77.131 32.249s54.024-16.382 77.183-32.249c23.29-15.984 47.451-32.507 77.972-32.507v1.755c-30.085 0-54.024 16.382-77.183 32.261-23.351 16.019-47.471 32.542-77.972 32.542Z"/>
    <path fill="#fff" fill-opacity=".5" d="M542.685 159.164c-30.5 0-54.621-16.522-77.972-32.495-23.149-15.855-47.097-32.26-77.172-32.26-30.075 0-54.024 16.382-77.183 32.26-12.384 8.531-25.214 17.283-38.874 23.485l-.547-1.638c13.539-6.143 26.328-14.896 38.672-23.403 23.29-15.984 47.452-32.506 77.972-32.506 30.521 0 54.621 16.522 77.973 32.506 23.108 15.937 47.046 32.319 77.131 32.319s54.024-16.382 77.183-32.249c23.29-15.984 47.451-32.506 77.972-32.506v1.755c-30.085 0-54.024 16.382-77.183 32.261-23.351 15.949-47.471 32.471-77.972 32.471Z"/>
    <path fill="#fff" fill-opacity=".5" d="M542.685 147.393c-30.5 0-54.621-16.523-77.972-32.507-23.149-15.855-47.097-32.249-77.172-32.249-30.075 0-54.024 16.382-77.183 32.249-12.384 8.507-25.214 17.295-38.874 23.496l-.547-1.638c13.539-6.155 26.328-14.896 38.672-23.402 23.29-15.973 47.452-32.495 77.972-32.495 30.521 0 54.621 16.522 77.973 32.495 23.148 15.867 47.087 32.26 77.172 32.26 30.085 0 54.023-16.382 77.182-32.26 23.291-15.973 47.452-32.495 77.972-32.495v1.755c-30.085 0-54.023 16.382-77.182 32.249-23.392 16.019-47.512 32.542-78.013 32.542Z"/>
    <path fill="#fff" fill-opacity=".5" d="M542.685 135.621c-30.5 0-54.621-16.522-77.972-32.507-23.128-15.89-47.077-32.272-77.152-32.272-30.075 0-54.024 16.382-77.182 32.249-12.405 8.53-25.235 17.306-38.895 23.52l-.547-1.638c13.539-6.155 26.328-14.908 38.672-23.403 23.29-15.972 47.452-32.495 77.972-32.495 30.521 0 54.621 16.522 77.973 32.495 23.148 15.855 47.087 32.261 77.172 32.261 30.085 0 54.023-16.382 77.182-32.261 23.291-15.972 47.452-32.495 77.972-32.495v1.767c-30.085 0-54.023 16.382-77.182 32.249-23.392 16.008-47.512 32.53-78.013 32.53Z"/>
    <path fill="#fff" fill-opacity=".5" d="M542.685 123.849c-30.5 0-54.621-16.522-77.972-32.506-23.128-15.82-47.077-32.202-77.152-32.202-30.075 0-54.024 16.382-77.182 32.249-12.405 8.448-25.235 17.236-38.895 23.438l-.547-1.627c13.539-6.155 26.328-14.907 38.672-23.403 23.29-15.972 47.452-32.494 77.972-32.494 30.521 0 54.621 16.522 77.973 32.494 23.148 15.856 47.087 32.261 77.172 32.261 30.085 0 54.023-16.382 77.182-32.26 23.291-15.973 47.452-32.495 77.972-32.495v1.837c-30.085 0-54.023 16.382-77.182 32.249-23.392 15.937-47.512 32.459-78.013 32.459Z"/>
    <path fill="#fff" fill-opacity=".5" d="M542.685 112.066c-30.5 0-54.621-16.51-77.972-32.495-23.149-15.855-47.097-32.26-77.172-32.26-30.075 0-54.024 16.382-77.183 32.26-12.384 8.496-25.214 17.283-38.874 23.485l-.547-1.627c13.539-6.154 26.328-14.907 38.672-23.402 23.29-15.984 47.452-32.507 77.972-32.507 30.521 0 54.621 16.523 77.973 32.507 23.148 15.855 47.087 32.249 77.172 32.249 30.085 0 54.023-16.382 77.182-32.25C643.199 62.044 667.36 45.52 697.88 45.52v1.755c-30.085 0-54.023 16.382-77.182 32.261-23.392 16.02-47.512 32.53-78.013 32.53Z"/>
    <path fill="#fff" fill-opacity=".5" d="M542.685 100.294c-30.5 0-54.621-16.522-77.972-32.494-23.149-15.856-47.097-32.261-77.172-32.261-30.075 0-54.024 16.382-77.183 32.26-12.384 8.496-25.214 17.284-38.874 23.485l-.547-1.638c13.539-6.143 26.328-14.896 38.672-23.403 23.29-15.984 47.452-32.506 77.972-32.506 30.521 0 54.621 16.522 77.973 32.506 23.148 15.856 47.087 32.25 77.172 32.25 30.085 0 54.023-16.382 77.182-32.25 23.291-15.984 47.452-32.506 77.972-32.506v1.755c-30.085 0-54.023 16.382-77.182 32.26-23.392 16.02-47.512 32.542-78.013 32.542Z"/>
    <path fill="#fff" fill-opacity=".5" d="M542.685 88.523c-30.5 0-54.621-16.522-77.972-32.495-23.149-15.867-47.097-32.26-77.172-32.26-30.075 0-54.024 16.381-77.183 32.26-12.384 8.495-25.214 17.283-38.874 23.485l-.547-1.65c13.539-6.143 26.328-14.896 38.672-23.403 23.29-15.972 47.452-32.495 77.972-32.495 30.521 0 54.621 16.523 77.973 32.507 23.148 15.855 47.087 32.249 77.172 32.249 30.085 0 54.023-16.382 77.182-32.25 23.291-15.983 47.452-32.506 77.972-32.506v1.756c-30.085 0-54.023 16.381-77.182 32.26-23.392 16.031-47.512 32.542-78.013 32.542Z"/>
    <path fill="#fff" fill-opacity=".5" d="M542.685 76.751c-30.5 0-54.621-16.522-77.972-32.506-23.149-15.856-47.097-32.25-77.172-32.25-30.075 0-54.024 16.383-77.183 32.25-12.384 8.507-25.214 17.294-38.874 23.496l-.547-1.58c13.539-6.154 26.328-14.895 38.672-23.402 23.29-15.973 47.452-32.495 77.972-32.495 30.521 0 54.621 16.522 77.973 32.495 23.148 15.867 47.087 32.26 77.172 32.26 30.085 0 54.023-16.382 77.182-32.26 23.291-15.973 47.452-32.495 77.972-32.495v1.755c-30.085 0-54.023 16.382-77.182 32.25-23.392 15.96-47.512 32.482-78.013 32.482Z"/>
    <path fill="#fff" fill-opacity=".5" d="M542.685 64.991c-30.5 0-54.621-16.522-77.972-32.506C441.564 16.63 417.616.235 387.541.235c-30.075 0-54.024 16.383-77.183 32.25-12.384 8.483-25.214 17.294-38.874 23.473l-.547-1.627c13.539-6.155 26.328-14.907 38.672-23.402 23.29-15.973 47.452-32.495 77.972-32.495 30.521 0 54.621 16.522 77.973 32.495 23.148 15.855 47.087 32.26 77.172 32.26 30.085 0 54.023-16.382 77.182-32.26C643.199 14.956 667.36-1.566 697.88-1.566V.189c-30.085 0-54.023 16.382-77.182 32.25-23.392 16.018-47.512 32.552-78.013 32.552Z"/>
    <path fill="#fff" fill-opacity=".5" d="M542.685 53.208c-30.5 0-54.621-16.522-77.972-32.506-23.149-15.856-47.097-32.25-77.172-32.25-30.075 0-54.024 16.383-77.183 32.25-12.384 8.495-25.214 17.283-38.874 23.484l-.547-1.626c13.539-6.155 26.328-14.908 38.672-23.403 23.29-15.972 47.452-32.495 77.972-32.495 30.521 0 54.621 16.523 77.973 32.495 23.148 15.855 47.087 32.26 77.172 32.26 30.085 0 54.023-16.381 77.182-32.26 23.291-15.972 47.452-32.495 77.972-32.495v1.755c-30.085 0-54.023 16.382-77.182 32.25-23.392 16.019-47.512 32.541-78.013 32.541Z"/>
    <path fill="#fff" fill-opacity=".5" d="M542.685 41.425c-30.5 0-54.621-16.523-77.972-32.495-23.149-15.855-47.097-32.26-77.172-32.26-30.075 0-54.024 16.381-77.183 32.26-12.384 8.495-25.214 17.283-38.874 23.485l-.547-1.627c13.539-6.155 26.328-14.907 38.672-23.403 23.29-15.984 47.452-32.506 77.972-32.506 30.521 0 54.621 16.522 77.973 32.506 23.148 15.856 47.087 32.25 77.172 32.25 30.085 0 54.023-16.382 77.182-32.25C643.199-8.599 667.36-25.12 697.88-25.12v1.755c-30.085 0-54.023 16.382-77.182 32.26-23.392 16.008-47.512 32.53-78.013 32.53Z"/>
    <path fill="#fff" fill-opacity=".5" d="M542.685 29.653c-30.5 0-54.621-16.522-77.972-32.495-23.149-15.855-47.097-32.26-77.172-32.26-30.075 0-54.004 16.405-77.162 32.225-12.405 8.53-25.235 17.318-38.895 23.52l-.547-1.638c13.539-6.143 26.328-14.896 38.672-23.403 23.29-15.984 47.452-32.506 77.972-32.506 30.521 0 54.621 16.522 77.973 32.506 23.148 15.855 47.087 32.25 77.172 32.25 30.085 0 54.023-16.383 77.182-32.25 23.291-15.984 47.452-32.506 77.972-32.506v1.755c-30.085 0-54.023 16.382-77.182 32.26-23.392 16.02-47.512 32.542-78.013 32.542Z"/>
    <path fill="#fff" fill-opacity=".5" d="M542.685 17.881c-30.5 0-54.621-16.522-77.972-32.494-23.128-15.867-47.077-32.26-77.152-32.26-30.075 0-54.024 16.393-77.182 32.295-12.405 8.46-25.235 17.248-38.895 23.403l-.547-1.639c13.539-6.143 26.328-14.895 38.672-23.402C332.94-32.13 357.061-48.63 387.561-48.63s54.621 16.522 77.972 32.506c23.149 15.856 47.087 32.25 77.172 32.25 30.086 0 54.024-16.383 77.183-32.25 23.29-15.984 47.452-32.506 77.972-32.506v1.755c-30.085 0-54.024 16.382-77.182 32.26-23.372 15.973-47.492 32.495-77.993 32.495Z"/>
    <path fill="#fff" fill-opacity=".5" d="M542.685 6.11c-30.5 0-54.621-16.522-77.972-32.506-23.128-15.856-47.077-32.25-77.152-32.25-30.075 0-54.024 16.382-77.182 32.25-12.405 8.506-25.235 17.294-38.895 23.52l-.547-1.639c13.539-6.155 26.328-14.896 38.672-23.403 23.29-15.972 47.452-32.494 77.972-32.494 30.521 0 54.621 16.522 77.973 32.494 23.148 15.867 47.087 32.261 77.172 32.261 30.085 0 54.023-16.382 77.182-32.26 23.291-15.973 47.452-32.495 77.972-32.495v1.755c-30.085 0-54.023 16.382-77.182 32.249C597.306-10.412 573.186 6.11 542.685 6.11Z"/>
  </g>
  <g clip-path="url(#c)">
    <path fill="#fff" fill-opacity=".5" d="M596.438 303.29c16.069-10.133 35.733-20.501 59.69-20.501 23.958 0 43.652 10.368 59.702 20.501l.73-1.545c-16.242-10.238-36.129-20.711-60.432-20.711-24.302 0-44.179 10.473-60.421 20.711l.731 1.545Zm311.032 0c16.07-10.133 35.733-20.501 59.691-20.501 23.957 0 43.649 10.368 59.699 20.501l.73-1.545c-16.24-10.238-36.127-20.711-60.429-20.711-24.303 0-44.18 10.473-60.422 20.711l.731 1.545Z"/>
    <path fill="#fff" fill-opacity=".5" d="M578.764 303.267c23.206-15.856 47.214-32.249 77.364-32.249 30.15 0 54.159 16.382 77.375 32.249l.772-1.51c-23.349-15.972-47.57-32.495-78.167-32.495-30.596 0-54.757 16.523-78.166 32.495l.822 1.51Zm311.032 0c23.217-15.856 47.215-32.249 77.365-32.249 30.15 0 54.159 16.382 77.379 32.249l.77-1.51c-23.35-15.972-47.573-32.495-78.17-32.495-30.596 0-54.747 16.523-78.166 32.495l.822 1.51Z"/>
    <path fill="#fff" fill-opacity=".5" d="M561.049 303.29c5.969-3.768 11.939-7.851 17.715-11.795 23.206-15.879 47.174-32.261 77.364-32.261 30.191 0 54.159 16.382 77.416 32.261 5.766 3.944 11.735 8.027 17.714 11.795l.731-1.544c-5.949-3.757-11.907-7.829-17.674-11.76-23.348-15.973-47.57-32.495-78.166-32.495-30.597 0-54.757 16.522-78.167 32.495-5.756 3.943-11.715 8.003-17.664 11.76l.731 1.544Zm311.033 0c5.969-3.768 11.938-7.851 17.714-11.795 23.206-15.879 47.215-32.261 77.365-32.261 30.15 0 54.159 16.382 77.379 32.249 5.76 3.944 11.73 8.028 17.71 11.796l.73-1.545c-5.95-3.756-11.91-7.828-17.67-11.76-23.35-15.972-47.573-32.495-78.17-32.495-30.596 0-54.757 16.523-78.166 32.495-5.756 3.932-11.715 8.004-17.664 11.76l.772 1.556Z"/>
    <path fill="#fff" fill-opacity=".5" d="M539.508 303.337c13.786-6.213 26.729-15.06 39.246-23.613 23.216-15.809 47.184-32.191 77.374-32.191 30.191 0 54.159 16.382 77.416 32.191 12.517 8.553 25.47 17.4 39.256 23.613l.558-1.638c-13.715-6.19-26.617-14.966-39.083-23.485-23.349-15.984-47.57-32.495-78.167-32.495-30.596 0-54.757 16.523-78.166 32.495-12.467 8.519-25.379 17.33-39.033 23.485l.599 1.638Zm311.022 0c13.796-6.214 26.739-15.06 39.266-23.613 23.206-15.809 47.215-32.191 77.365-32.191 30.15 0 54.159 16.382 77.379 32.249 12.43 8.437 25.29 17.224 38.99 23.426l.55-1.626c-13.58-6.155-26.4-14.908-38.77-23.403-23.35-15.984-47.573-32.495-78.17-32.495-30.596 0-54.757 16.523-78.166 32.495-12.466 8.519-25.379 17.33-39.033 23.485l.589 1.673Z"/>
    <path fill="#fff" fill-opacity=".5" d="M811.65 300.447c30.576 0 54.757-16.523 78.166-32.495 23.207-15.855 47.215-32.261 77.365-32.261 30.15 0 54.159 16.382 77.379 32.261 12.41 8.495 25.27 17.283 38.97 23.485l.55-1.639c-13.58-6.143-26.4-14.895-38.77-23.402-23.35-15.984-47.573-32.507-78.17-32.507-30.596 0-54.757 16.523-78.166 32.507-23.207 15.855-47.205 32.249-77.365 32.249-30.16 0-54.158-16.382-77.375-32.249-23.348-15.984-47.57-32.507-78.166-32.507v1.755c30.16 0 54.158 16.382 77.374 32.261 23.45 16.019 47.631 32.542 78.208 32.542Z"/>
    <path fill="#fff" fill-opacity=".5" d="M811.65 288.675c30.576 0 54.757-16.522 78.166-32.495 23.207-15.867 47.215-32.26 77.365-32.26 30.15 0 54.159 16.382 77.379 32.26 12.41 8.496 25.27 17.283 38.97 23.485l.55-1.638c-13.58-6.143-26.4-14.896-38.77-23.403-23.35-15.984-47.573-32.506-78.17-32.506-30.596 0-54.757 16.522-78.166 32.506-23.207 15.855-47.205 32.249-77.365 32.249-30.16 0-54.158-16.382-77.375-32.249-23.348-15.984-47.57-32.506-78.166-32.506v1.755c30.16 0 54.158 16.382 77.374 32.261 23.45 15.972 47.631 32.541 78.208 32.541Z"/>
    <path fill="#fff" fill-opacity=".5" d="M811.65 276.903c30.576 0 54.757-16.522 78.166-32.494 23.207-15.867 47.215-32.261 77.365-32.261 30.15 0 54.159 16.382 77.379 32.249 12.41 8.507 25.27 17.295 38.97 23.496l.55-1.638c-13.58-6.155-26.4-14.896-38.77-23.403-23.35-15.972-47.573-32.494-78.17-32.494-30.596 0-54.757 16.522-78.166 32.494-23.207 15.868-47.205 32.261-77.365 32.261-30.16 0-54.158-16.382-77.375-32.261-23.348-15.972-47.57-32.494-78.166-32.494v1.755c30.16 0 54.158 16.382 77.374 32.261 23.45 16.031 47.631 32.529 78.208 32.529Z"/>
    <path fill="#fff" fill-opacity=".5" d="M811.65 265.085c30.576 0 54.757-16.522 78.166-32.506 23.207-15.856 47.215-32.249 77.365-32.249 30.15 0 54.159 16.382 77.379 32.249 12.41 8.542 25.27 17.294 38.97 23.531l.55-1.626c-13.58-6.155-26.4-14.908-38.77-23.403-23.35-15.973-47.573-32.495-78.17-32.495-30.596 0-54.757 16.522-78.166 32.495-23.207 15.855-47.205 32.261-77.365 32.261-30.16 0-54.158-16.382-77.375-32.261-23.348-15.973-47.57-32.495-78.166-32.495v1.755c30.16 0 54.158 16.382 77.374 32.249 23.45 16.02 47.631 32.495 78.208 32.495Z"/>
    <path fill="#fff" fill-opacity=".5" d="M811.65 253.384c30.576 0 54.757-16.523 78.166-32.507 23.207-15.855 47.215-32.249 77.365-32.249 30.15 0 54.159 16.382 77.379 32.249 12.41 8.472 25.27 17.295 38.97 23.462l.55-1.627c-13.58-6.155-26.4-14.907-38.77-23.403-23.35-15.972-47.573-32.494-78.17-32.494-30.596 0-54.757 16.522-78.166 32.494-23.207 15.856-47.205 32.261-77.365 32.261-30.16 0-54.158-16.382-77.375-32.261-23.348-15.972-47.57-32.494-78.166-32.494v1.755c30.16 0 54.158 16.382 77.374 32.249 23.45 16.019 47.631 32.565 78.208 32.565Z"/>
    <path fill="#fff" fill-opacity=".5" d="M811.65 241.577c30.576 0 54.757-16.522 78.166-32.495 23.207-15.855 47.215-32.26 77.365-32.26 30.15 0 54.159 16.382 77.379 32.26 12.41 8.496 25.27 17.283 38.97 23.485l.55-1.626c-13.58-6.155-26.4-14.908-38.77-23.403-23.35-15.984-47.573-32.507-78.17-32.507-30.596 0-54.757 16.523-78.166 32.507-23.207 15.855-47.205 32.249-77.365 32.249-30.16 0-54.158-16.382-77.375-32.249-23.348-15.984-47.57-32.507-78.166-32.507v1.755c30.16 0 54.158 16.382 77.374 32.261 23.45 16.008 47.631 32.53 78.208 32.53Z"/>
    <path fill="#fff" fill-opacity=".5" d="M811.65 229.805c30.576 0 54.757-16.522 78.166-32.494 23.207-15.856 47.215-32.261 77.365-32.261 30.15 0 54.159 16.382 77.379 32.261 12.41 8.495 25.27 17.283 38.97 23.484l.55-1.638c-13.58-6.143-26.4-14.896-38.77-23.403-23.35-15.984-47.573-32.506-78.17-32.506-30.596 0-54.757 16.522-78.166 32.506-23.207 15.856-47.205 32.249-77.365 32.249-30.16 0-54.158-16.382-77.375-32.249-23.348-15.984-47.57-32.506-78.166-32.506v1.755c30.16 0 54.158 16.382 77.374 32.261 23.45 16.019 47.631 32.541 78.208 32.541Z"/>
    <path fill="#fff" fill-opacity=".5" d="M811.65 218.034c30.576 0 54.757-16.523 78.166-32.495 23.207-15.867 47.215-32.261 77.365-32.261 30.15 0 54.159 16.382 77.379 32.261 12.41 8.495 25.27 17.283 38.97 23.485l.55-1.638c-13.58-6.155-26.4-14.896-38.77-23.403-23.35-15.973-47.573-32.495-78.17-32.495-30.596 0-54.757 16.522-78.166 32.495-23.207 15.867-47.205 32.261-77.365 32.261-30.16 0-54.158-16.382-77.375-32.261-23.348-15.973-47.57-32.495-78.166-32.495v1.755c30.16 0 54.158 16.382 77.374 32.261 23.45 16.007 47.631 32.53 78.208 32.53Z"/>
    <path fill="#fff" fill-opacity=".5" d="M811.65 206.262c30.576 0 54.757-16.522 78.166-32.506 23.207-15.856 47.215-32.249 77.365-32.249 30.15 0 54.139 16.393 77.359 32.307 12.43 8.449 25.29 17.236 38.99 23.403l.55-1.638c-13.58-6.155-26.4-14.908-38.77-23.403-23.35-15.972-47.573-32.495-78.17-32.495-30.596 0-54.757 16.523-78.166 32.495-23.207 15.867-47.205 32.261-77.365 32.261-30.16 0-54.158-16.382-77.375-32.261-23.348-15.972-47.57-32.495-78.166-32.495v1.756c30.16 0 54.158 16.381 77.374 32.249 23.45 16.054 47.631 32.576 78.208 32.576Z"/>
    <path fill="#fff" fill-opacity=".5" d="M811.65 194.491c30.576 0 54.757-16.523 78.166-32.507 23.207-15.855 47.215-32.249 77.365-32.249 30.15 0 54.159 16.382 77.379 32.249 12.41 8.495 25.27 17.283 38.97 23.532l.55-1.627c-13.58-6.155-26.4-14.907-38.77-23.403-23.35-15.972-47.573-32.494-78.17-32.494-30.596 0-54.757 16.522-78.166 32.494-23.207 15.856-47.205 32.261-77.365 32.261-30.16 0-54.158-16.382-77.375-32.261-23.348-15.972-47.57-32.494-78.166-32.494v1.755c30.16 0 54.158 16.382 77.374 32.249 23.45 15.972 47.631 32.495 78.208 32.495Z"/>
    <path fill="#fff" fill-opacity=".5" d="M811.65 182.719c30.576 0 54.757-16.522 78.166-32.506 23.207-15.856 47.215-32.249 77.365-32.249 30.15 0 54.159 16.381 77.379 32.249 12.41 8.495 25.27 17.282 38.97 23.484l.55-1.626c-13.58-6.155-26.4-14.908-38.77-23.403-23.35-15.984-47.573-32.495-78.17-32.495-30.596 0-54.757 16.523-78.166 32.495-23.207 15.855-47.205 32.261-77.365 32.261-30.16 0-54.158-16.382-77.375-32.261-23.348-15.972-47.57-32.495-78.166-32.495v1.755c30.16 0 54.158 16.382 77.374 32.249 23.45 16.02 47.631 32.542 78.208 32.542Z"/>
    <path fill="#fff" fill-opacity=".5" d="M811.65 170.936c30.576 0 54.757-16.523 78.166-32.495 23.207-15.855 47.215-32.261 77.365-32.261 30.15 0 54.159 16.382 77.379 32.261 12.41 8.46 25.27 17.283 38.97 23.485l.55-1.639c-13.58-6.143-26.4-14.895-38.77-23.402-23.35-15.984-47.573-32.507-78.17-32.507-30.596 0-54.757 16.523-78.166 32.507-23.166 15.867-47.164 32.249-77.324 32.249-30.16 0-54.159-16.382-77.375-32.249-23.349-15.984-47.57-32.507-78.167-32.507v1.755c30.16 0 54.159 16.382 77.375 32.261 23.409 16.019 47.59 32.542 78.167 32.542Z"/>
    <path fill="#fff" fill-opacity=".5" d="M811.65 159.164c30.576 0 54.757-16.522 78.166-32.495 23.207-15.855 47.215-32.26 77.365-32.26 30.15 0 54.159 16.382 77.379 32.26 12.41 8.531 25.27 17.283 38.97 23.485l.55-1.638c-13.58-6.143-26.4-14.896-38.77-23.403-23.35-15.984-47.573-32.506-78.17-32.506-30.596 0-54.757 16.522-78.166 32.506-23.166 15.937-47.164 32.319-77.324 32.319-30.16 0-54.159-16.382-77.375-32.249-23.349-15.984-47.57-32.506-78.167-32.506v1.755c30.16 0 54.159 16.382 77.375 32.261 23.409 15.949 47.59 32.471 78.167 32.471Z"/>
    <path fill="#fff" fill-opacity=".5" d="M811.65 147.393c30.576 0 54.757-16.523 78.166-32.507 23.207-15.855 47.215-32.249 77.365-32.249 30.15 0 54.159 16.382 77.379 32.249 12.41 8.507 25.27 17.295 38.97 23.496l.55-1.638c-13.58-6.155-26.4-14.896-38.77-23.402-23.35-15.973-47.573-32.495-78.17-32.495-30.596 0-54.757 16.522-78.166 32.495-23.207 15.867-47.205 32.26-77.365 32.26-30.16 0-54.158-16.382-77.375-32.26-23.348-15.973-47.57-32.495-78.166-32.495v1.755c30.16 0 54.158 16.382 77.374 32.249 23.45 16.019 47.631 32.542 78.208 32.542Z"/>
    <path fill="#fff" fill-opacity=".5" d="M811.65 135.621c30.576 0 54.757-16.522 78.166-32.507 23.186-15.89 47.195-32.272 77.345-32.272s54.159 16.382 77.379 32.249c12.43 8.53 25.29 17.306 38.99 23.52l.55-1.638c-13.58-6.155-26.4-14.908-38.77-23.403-23.35-15.972-47.573-32.495-78.17-32.495-30.596 0-54.757 16.522-78.166 32.495-23.207 15.855-47.205 32.261-77.365 32.261-30.16 0-54.158-16.382-77.375-32.261-23.348-15.972-47.57-32.495-78.166-32.495v1.767c30.16 0 54.158 16.382 77.374 32.249 23.45 16.008 47.631 32.53 78.208 32.53Z"/>
    <path fill="#fff" fill-opacity=".5" d="M811.65 123.849c30.576 0 54.757-16.522 78.166-32.506 23.186-15.82 47.195-32.202 77.345-32.202s54.159 16.382 77.379 32.249c12.43 8.448 25.29 17.236 38.99 23.438l.55-1.627c-13.58-6.155-26.4-14.907-38.77-23.403-23.35-15.972-47.573-32.494-78.17-32.494-30.596 0-54.757 16.522-78.166 32.494-23.207 15.856-47.205 32.261-77.365 32.261-30.16 0-54.158-16.382-77.375-32.26-23.348-15.973-47.57-32.495-78.166-32.495v1.837c30.16 0 54.158 16.382 77.374 32.249 23.45 15.937 47.631 32.459 78.208 32.459Z"/>
    <path fill="#fff" fill-opacity=".5" d="M811.65 112.066c30.576 0 54.757-16.51 78.166-32.495 23.207-15.855 47.215-32.26 77.365-32.26 30.15 0 54.159 16.382 77.379 32.26 12.41 8.496 25.27 17.283 38.97 23.485l.55-1.627c-13.58-6.154-26.4-14.907-38.77-23.402-23.35-15.984-47.573-32.507-78.17-32.507-30.596 0-54.757 16.523-78.166 32.507-23.207 15.855-47.205 32.249-77.365 32.249-30.16 0-54.158-16.382-77.375-32.25-23.348-15.983-47.57-32.506-78.166-32.506v1.755c30.16 0 54.158 16.382 77.374 32.261 23.45 16.02 47.631 32.53 78.208 32.53Z"/>
    <path fill="#fff" fill-opacity=".5" d="M811.65 100.294c30.576 0 54.757-16.522 78.166-32.494 23.207-15.856 47.215-32.261 77.365-32.261 30.15 0 54.159 16.382 77.379 32.26 12.41 8.496 25.27 17.284 38.97 23.485l.55-1.638c-13.58-6.143-26.4-14.896-38.77-23.403-23.35-15.984-47.573-32.506-78.17-32.506-30.596 0-54.757 16.522-78.166 32.506-23.207 15.856-47.205 32.25-77.365 32.25-30.16 0-54.158-16.382-77.375-32.25-23.348-15.984-47.57-32.506-78.166-32.506v1.755c30.16 0 54.158 16.382 77.374 32.26 23.45 16.02 47.631 32.542 78.208 32.542Z"/>
    <path fill="#fff" fill-opacity=".5" d="M811.65 88.523c30.576 0 54.757-16.522 78.166-32.495 23.207-15.867 47.215-32.26 77.365-32.26 30.15 0 54.159 16.381 77.379 32.26 12.41 8.495 25.27 17.283 38.97 23.485l.55-1.65c-13.58-6.143-26.4-14.896-38.77-23.403-23.35-15.972-47.573-32.495-78.17-32.495-30.596 0-54.757 16.523-78.166 32.507-23.207 15.855-47.205 32.249-77.365 32.249-30.16 0-54.158-16.382-77.375-32.25-23.348-15.983-47.57-32.506-78.166-32.506v1.756c30.16 0 54.158 16.381 77.374 32.26 23.45 16.031 47.631 32.542 78.208 32.542Z"/>
    <path fill="#fff" fill-opacity=".5" d="M811.65 76.751c30.576 0 54.757-16.522 78.166-32.506 23.207-15.856 47.215-32.25 77.365-32.25 30.15 0 54.159 16.383 77.379 32.25 12.41 8.507 25.27 17.294 38.97 23.496l.55-1.58c-13.58-6.154-26.4-14.895-38.77-23.402-23.35-15.973-47.573-32.495-78.17-32.495-30.596 0-54.757 16.522-78.166 32.495-23.207 15.867-47.205 32.26-77.365 32.26-30.16 0-54.158-16.382-77.375-32.26-23.348-15.973-47.57-32.495-78.166-32.495v1.755c30.16 0 54.158 16.382 77.374 32.25 23.45 15.96 47.631 32.482 78.208 32.482Z"/>
    <path fill="#fff" fill-opacity=".5" d="M811.65 64.991c30.576 0 54.757-16.522 78.166-32.506C913.023 16.63 937.031.235 967.181.235c30.15 0 54.159 16.383 77.379 32.25 12.41 8.483 25.27 17.294 38.97 23.473l.55-1.627c-13.58-6.155-26.4-14.907-38.77-23.402-23.35-15.973-47.573-32.495-78.17-32.495-30.596 0-54.757 16.522-78.166 32.495-23.207 15.855-47.205 32.26-77.365 32.26-30.16 0-54.158-16.382-77.375-32.26-23.348-15.973-47.57-32.495-78.166-32.495V.189c30.16 0 54.158 16.382 77.374 32.25 23.45 16.018 47.631 32.552 78.208 32.552Z"/>
    <path fill="#fff" fill-opacity=".5" d="M811.65 53.208c30.576 0 54.757-16.522 78.166-32.506 23.207-15.856 47.215-32.25 77.365-32.25 30.15 0 54.159 16.383 77.379 32.25 12.41 8.495 25.27 17.283 38.97 23.484l.55-1.626c-13.58-6.155-26.4-14.908-38.77-23.403-23.35-15.972-47.573-32.495-78.17-32.495-30.596 0-54.757 16.523-78.166 32.495-23.207 15.855-47.205 32.26-77.365 32.26-30.16 0-54.158-16.381-77.375-32.26-23.348-15.972-47.57-32.495-78.166-32.495v1.755c30.16 0 54.158 16.382 77.374 32.25 23.45 16.019 47.631 32.541 78.208 32.541Z"/>
    <path fill="#fff" fill-opacity=".5" d="M811.65 41.425c30.576 0 54.757-16.523 78.166-32.495 23.207-15.855 47.215-32.26 77.365-32.26 30.15 0 54.159 16.381 77.379 32.26 12.41 8.495 25.27 17.283 38.97 23.485l.55-1.627c-13.58-6.155-26.4-14.907-38.77-23.403-23.35-15.984-47.573-32.506-78.17-32.506-30.596 0-54.757 16.522-78.166 32.506-23.207 15.856-47.205 32.25-77.365 32.25-30.16 0-54.158-16.382-77.375-32.25-23.348-15.984-47.57-32.506-78.166-32.506v1.755c30.16 0 54.158 16.382 77.374 32.26 23.45 16.008 47.631 32.53 78.208 32.53Z"/>
    <path fill="#fff" fill-opacity=".5" d="M811.65 29.653c30.576 0 54.757-16.522 78.166-32.495 23.207-15.855 47.215-32.26 77.365-32.26 30.15 0 54.139 16.405 77.359 32.225 12.43 8.53 25.29 17.318 38.99 23.52l.55-1.638c-13.58-6.143-26.4-14.896-38.77-23.403-23.35-15.984-47.573-32.506-78.17-32.506-30.596 0-54.757 16.522-78.166 32.506-23.207 15.855-47.205 32.25-77.365 32.25-30.16 0-54.158-16.383-77.375-32.25-23.348-15.984-47.57-32.506-78.166-32.506v1.755c30.16 0 54.158 16.382 77.374 32.26 23.45 16.02 47.631 32.542 78.208 32.542Z"/>
    <path fill="#fff" fill-opacity=".5" d="M811.65 17.881c30.576 0 54.757-16.522 78.166-32.494 23.186-15.867 47.195-32.26 77.345-32.26s54.159 16.393 77.379 32.295c12.43 8.46 25.29 17.248 38.99 23.403l.55-1.639c-13.58-6.143-26.4-14.895-38.77-23.402-23.39-15.914-47.573-32.413-78.149-32.413-30.577 0-54.758 16.522-78.167 32.506-23.206 15.856-47.204 32.25-77.365 32.25-30.16 0-54.158-16.383-77.374-32.25-23.349-15.984-47.57-32.506-78.167-32.506v1.755c30.16 0 54.158 16.382 77.375 32.26 23.429 15.973 47.61 32.495 78.187 32.495Z"/>
    <path fill="#fff" fill-opacity=".5" d="M811.65 6.11c30.576 0 54.757-16.522 78.166-32.506 23.186-15.856 47.195-32.25 77.345-32.25s54.159 16.382 77.379 32.25c12.43 8.506 25.29 17.294 38.99 23.52l.55-1.639c-13.58-6.155-26.4-14.896-38.77-23.403-23.35-15.972-47.573-32.494-78.17-32.494-30.596 0-54.757 16.522-78.166 32.494-23.207 15.867-47.205 32.261-77.365 32.261-30.16 0-54.158-16.382-77.375-32.26-23.348-15.973-47.57-32.495-78.166-32.495v1.755c30.16 0 54.158 16.382 77.374 32.249C756.892-10.412 781.073 6.11 811.65 6.11Z"/>
  </g>
  <g clip-path="url(#d)">
    <path fill="#fff" fill-opacity=".5" d="M104.897 303.29c16.029-10.133 35.644-20.501 59.542-20.501 23.898 0 43.543 10.368 59.553 20.501l.729-1.545c-16.202-10.238-36.04-20.711-60.282-20.711-24.242 0-44.07 10.473-60.272 20.711l.73 1.545Z"/>
    <path fill="#fff" fill-opacity=".5" d="M87.267 303.267c23.158-15.856 47.097-32.249 77.172-32.249 30.075 0 54.024 16.382 77.182 32.249l.77-1.51c-23.29-15.972-47.452-32.495-77.972-32.495-30.521 0-54.611 16.523-77.973 32.495l.82 1.51Z"/>
    <path fill="#fff" fill-opacity=".5" d="M69.596 303.29c5.955-3.768 11.909-7.851 17.67-11.795 23.149-15.879 47.098-32.261 77.173-32.261 30.075 0 54.024 16.382 77.182 32.249 5.752 3.944 11.706 8.028 17.671 11.796l.729-1.545c-5.934-3.756-11.878-7.828-17.63-11.76-23.29-15.972-47.452-32.495-77.972-32.495-30.521 0-54.621 16.523-77.973 32.495-5.741 3.932-11.685 8.004-17.62 11.76l.77 1.556Z"/>
    <path fill="#fff" fill-opacity=".5" d="M48.098 303.337c13.762-6.214 26.673-15.06 39.169-23.613 23.148-15.809 47.097-32.191 77.172-32.191 30.075 0 54.024 16.382 77.182 32.249 12.405 8.437 25.235 17.224 38.895 23.426l.547-1.626c-13.539-6.155-26.328-14.908-38.672-23.403-23.29-15.984-47.452-32.495-77.972-32.495-30.521 0-54.621 16.523-77.973 32.495-12.435 8.519-25.315 17.33-38.935 23.485l.587 1.673Z"/>
    <path fill="#fff" fill-opacity=".5" d="M9.315 300.447c30.5 0 54.62-16.523 77.972-32.495 23.149-15.855 47.097-32.261 77.172-32.261 30.075 0 54.024 16.382 77.183 32.261 12.384 8.495 25.214 17.283 38.874 23.485l.547-1.639c-13.539-6.143-26.328-14.895-38.672-23.402-23.29-15.984-47.452-32.507-77.972-32.507-30.521 0-54.621 16.523-77.973 32.507-23.148 15.855-47.087 32.249-77.172 32.249-30.085 0-54.023-16.382-77.182-32.249-23.29-15.984-47.452-32.507-77.972-32.507v1.755c30.085 0 54.023 16.382 77.182 32.261 23.392 16.019 47.512 32.542 78.013 32.542Z"/>
    <path fill="#fff" fill-opacity=".5" d="M9.315 288.675c30.5 0 54.62-16.522 77.972-32.495 23.149-15.867 47.097-32.26 77.172-32.26 30.075 0 54.024 16.382 77.183 32.26 12.384 8.496 25.214 17.283 38.874 23.485l.547-1.638c-13.539-6.143-26.328-14.896-38.672-23.403-23.29-15.984-47.452-32.506-77.972-32.506-30.521 0-54.621 16.522-77.973 32.506-23.148 15.855-47.087 32.249-77.172 32.249-30.085 0-54.023-16.382-77.182-32.249-23.29-15.984-47.452-32.506-77.972-32.506v1.755c30.085 0 54.023 16.382 77.182 32.261 23.392 15.972 47.512 32.541 78.013 32.541Z"/>
    <path fill="#fff" fill-opacity=".5" d="M9.315 276.903c30.5 0 54.62-16.522 77.972-32.494 23.149-15.867 47.097-32.261 77.172-32.261 30.075 0 54.024 16.382 77.183 32.249 12.384 8.507 25.214 17.295 38.874 23.496l.547-1.638c-13.539-6.155-26.328-14.896-38.672-23.403-23.29-15.972-47.452-32.494-77.972-32.494-30.521 0-54.621 16.522-77.973 32.494-23.148 15.868-47.087 32.261-77.172 32.261-30.085 0-54.023-16.382-77.182-32.261-23.29-15.972-47.452-32.494-77.972-32.494v1.755c30.085 0 54.023 16.382 77.182 32.261 23.392 16.031 47.512 32.529 78.013 32.529Z"/>
    <path fill="#fff" fill-opacity=".5" d="M9.315 265.085c30.5 0 54.62-16.522 77.972-32.506 23.149-15.856 47.097-32.249 77.172-32.249 30.075 0 54.024 16.382 77.183 32.249 12.384 8.542 25.214 17.294 38.874 23.531l.547-1.626c-13.539-6.155-26.328-14.908-38.672-23.403-23.29-15.973-47.452-32.495-77.972-32.495-30.521 0-54.621 16.522-77.973 32.495-23.148 15.855-47.087 32.261-77.172 32.261-30.085 0-54.023-16.382-77.182-32.261-23.29-15.973-47.452-32.495-77.972-32.495v1.755c30.085 0 54.023 16.382 77.182 32.249 23.392 16.02 47.512 32.495 78.013 32.495Z"/>
    <path fill="#fff" fill-opacity=".5" d="M9.315 253.384c30.5 0 54.62-16.523 77.972-32.507 23.149-15.855 47.097-32.249 77.172-32.249 30.075 0 54.024 16.382 77.183 32.249 12.384 8.472 25.214 17.295 38.874 23.462l.547-1.627c-13.539-6.155-26.328-14.907-38.672-23.403-23.29-15.972-47.452-32.494-77.972-32.494-30.521 0-54.621 16.522-77.973 32.494C63.299 235.165 39.36 251.57 9.275 251.57c-30.085 0-54.023-16.382-77.182-32.261-23.29-15.972-47.452-32.494-77.972-32.494v1.755c30.085 0 54.023 16.382 77.182 32.249 23.392 16.019 47.512 32.565 78.013 32.565Z"/>
    <path fill="#fff" fill-opacity=".5" d="M9.315 241.577c30.5 0 54.62-16.522 77.972-32.495 23.149-15.855 47.097-32.26 77.172-32.26 30.075 0 54.024 16.382 77.183 32.26 12.384 8.496 25.214 17.283 38.874 23.485l.547-1.626c-13.539-6.155-26.328-14.908-38.672-23.403-23.29-15.984-47.452-32.507-77.972-32.507-30.521 0-54.621 16.523-77.973 32.507-23.148 15.855-47.087 32.249-77.172 32.249-30.085 0-54.023-16.382-77.182-32.249-23.29-15.984-47.452-32.507-77.972-32.507v1.755c30.085 0 54.023 16.382 77.182 32.261 23.392 16.008 47.512 32.53 78.013 32.53Z"/>
    <path fill="#fff" fill-opacity=".5" d="M9.315 229.805c30.5 0 54.62-16.522 77.972-32.494 23.149-15.856 47.097-32.261 77.172-32.261 30.075 0 54.024 16.382 77.183 32.261 12.384 8.495 25.214 17.283 38.874 23.484l.547-1.638c-13.539-6.143-26.328-14.896-38.672-23.403-23.29-15.984-47.452-32.506-77.972-32.506-30.521 0-54.621 16.522-77.973 32.506-23.148 15.856-47.087 32.249-77.172 32.249-30.085 0-54.023-16.382-77.182-32.249-23.29-15.984-47.452-32.506-77.972-32.506v1.755c30.085 0 54.023 16.382 77.182 32.261 23.392 16.019 47.512 32.541 78.013 32.541Z"/>
    <path fill="#fff" fill-opacity=".5" d="M9.315 218.034c30.5 0 54.62-16.523 77.972-32.495 23.149-15.867 47.097-32.261 77.172-32.261 30.075 0 54.024 16.382 77.183 32.261 12.384 8.495 25.214 17.283 38.874 23.485l.547-1.638c-13.539-6.155-26.328-14.896-38.672-23.403-23.29-15.973-47.452-32.495-77.972-32.495-30.521 0-54.621 16.522-77.973 32.495-23.148 15.867-47.087 32.261-77.172 32.261-30.085 0-54.023-16.382-77.182-32.261-23.29-15.973-47.452-32.495-77.972-32.495v1.755c30.085 0 54.023 16.382 77.182 32.261 23.392 16.007 47.512 32.53 78.013 32.53Z"/>
    <path fill="#fff" fill-opacity=".5" d="M9.315 206.262c30.5 0 54.62-16.522 77.972-32.506 23.149-15.856 47.097-32.249 77.172-32.249 30.075 0 54.004 16.393 77.162 32.307 12.405 8.449 25.235 17.236 38.895 23.403l.547-1.638c-13.539-6.155-26.328-14.908-38.672-23.403-23.29-15.972-47.452-32.495-77.972-32.495-30.521 0-54.621 16.523-77.973 32.495-23.148 15.867-47.087 32.261-77.172 32.261-30.085 0-54.023-16.382-77.182-32.261-23.29-15.972-47.452-32.495-77.972-32.495v1.756c30.085 0 54.023 16.381 77.182 32.249 23.392 16.054 47.512 32.576 78.013 32.576Z"/>
    <path fill="#fff" fill-opacity=".5" d="M9.315 194.491c30.5 0 54.62-16.523 77.972-32.507 23.149-15.855 47.097-32.249 77.172-32.249 30.075 0 54.024 16.382 77.183 32.249 12.384 8.495 25.214 17.283 38.874 23.532l.547-1.627c-13.539-6.155-26.328-14.907-38.672-23.403-23.29-15.972-47.452-32.494-77.972-32.494-30.521 0-54.621 16.522-77.973 32.494-23.148 15.856-47.087 32.261-77.172 32.261-30.085 0-54.023-16.382-77.182-32.261-23.29-15.972-47.452-32.494-77.972-32.494v1.755c30.085 0 54.023 16.382 77.182 32.249 23.392 15.972 47.512 32.495 78.013 32.495Z"/>
    <path fill="#fff" fill-opacity=".5" d="M9.315 182.719c30.5 0 54.62-16.522 77.972-32.506 23.149-15.856 47.097-32.249 77.172-32.249 30.075 0 54.024 16.381 77.183 32.249 12.384 8.495 25.214 17.282 38.874 23.484l.547-1.626c-13.539-6.155-26.328-14.908-38.672-23.403-23.29-15.984-47.452-32.495-77.972-32.495-30.521 0-54.621 16.523-77.973 32.495-23.148 15.855-47.087 32.261-77.172 32.261-30.085 0-54.023-16.382-77.182-32.261-23.29-15.972-47.452-32.495-77.972-32.495v1.755c30.085 0 54.023 16.382 77.182 32.249 23.392 16.02 47.512 32.542 78.013 32.542Z"/>
    <path fill="#fff" fill-opacity=".5" d="M9.315 170.936c30.5 0 54.62-16.523 77.972-32.495 23.149-15.855 47.097-32.261 77.172-32.261 30.075 0 54.024 16.382 77.183 32.261 12.384 8.46 25.214 17.283 38.874 23.485l.547-1.639c-13.539-6.143-26.328-14.895-38.672-23.402-23.29-15.984-47.452-32.507-77.972-32.507-30.521 0-54.621 16.523-77.973 32.507-23.108 15.867-47.046 32.249-77.131 32.249s-54.024-16.382-77.183-32.249c-23.29-15.984-47.451-32.507-77.972-32.507v1.755c30.085 0 54.024 16.382 77.183 32.261 23.35 16.019 47.471 32.542 77.972 32.542Z"/>
    <path fill="#fff" fill-opacity=".5" d="M9.315 159.164c30.5 0 54.62-16.522 77.972-32.495 23.149-15.855 47.097-32.26 77.172-32.26 30.075 0 54.024 16.382 77.183 32.26 12.384 8.531 25.214 17.283 38.874 23.485l.547-1.638c-13.539-6.143-26.328-14.896-38.672-23.403-23.29-15.984-47.452-32.506-77.972-32.506-30.521 0-54.621 16.522-77.973 32.506-23.108 15.937-47.046 32.319-77.13 32.319s-54.024-16.382-77.183-32.249c-23.29-15.984-47.451-32.506-77.972-32.506v1.755c30.085 0 54.024 16.382 77.183 32.261 23.35 15.949 47.471 32.471 77.972 32.471Z"/>
    <path fill="#fff" fill-opacity=".5" d="M9.315 147.393c30.5 0 54.62-16.523 77.972-32.507 23.149-15.855 47.097-32.249 77.172-32.249 30.075 0 54.024 16.382 77.183 32.249 12.384 8.507 25.214 17.295 38.874 23.496l.547-1.638c-13.539-6.155-26.328-14.896-38.672-23.402-23.29-15.973-47.452-32.495-77.972-32.495-30.521 0-54.621 16.522-77.973 32.495-23.148 15.867-47.087 32.26-77.172 32.26-30.085 0-54.023-16.382-77.182-32.26-23.29-15.973-47.452-32.495-77.972-32.495v1.755c30.085 0 54.023 16.382 77.182 32.249 23.392 16.019 47.512 32.542 78.013 32.542Z"/>
    <path fill="#fff" fill-opacity=".5" d="M9.315 135.621c30.5 0 54.62-16.522 77.972-32.507 23.128-15.89 47.077-32.272 77.152-32.272 30.075 0 54.024 16.382 77.182 32.249 12.405 8.53 25.235 17.306 38.895 23.52l.547-1.638c-13.539-6.155-26.328-14.908-38.672-23.403-23.29-15.972-47.452-32.495-77.972-32.495-30.521 0-54.621 16.522-77.973 32.495-23.148 15.855-47.087 32.261-77.172 32.261-30.085 0-54.023-16.382-77.182-32.261-23.29-15.972-47.452-32.495-77.972-32.495v1.767c30.085 0 54.023 16.382 77.182 32.249 23.392 16.008 47.512 32.53 78.013 32.53Z"/>
    <path fill="#fff" fill-opacity=".5" d="M9.315 123.849c30.5 0 54.62-16.522 77.972-32.506 23.128-15.82 47.077-32.202 77.152-32.202 30.075 0 54.024 16.382 77.182 32.249 12.405 8.448 25.235 17.236 38.895 23.438l.547-1.627c-13.539-6.155-26.328-14.907-38.672-23.403-23.29-15.972-47.452-32.494-77.972-32.494-30.521 0-54.621 16.522-77.973 32.494C63.299 105.654 39.36 122.06 9.275 122.06c-30.085 0-54.023-16.382-77.182-32.26-23.29-15.973-47.452-32.495-77.972-32.495v1.837c30.085 0 54.023 16.382 77.182 32.249 23.392 15.937 47.512 32.459 78.013 32.459Z"/>
    <path fill="#fff" fill-opacity=".5" d="M9.315 112.066c30.5 0 54.62-16.51 77.972-32.495 23.149-15.855 47.097-32.26 77.172-32.26 30.075 0 54.024 16.382 77.183 32.26 12.384 8.496 25.214 17.283 38.874 23.485l.547-1.627c-13.539-6.154-26.328-14.907-38.672-23.402-23.29-15.984-47.452-32.507-77.972-32.507-30.521 0-54.621 16.523-77.973 32.507-23.148 15.855-47.087 32.249-77.172 32.249-30.085 0-54.023-16.382-77.182-32.25-23.29-15.983-47.452-32.506-77.972-32.506v1.755c30.085 0 54.023 16.382 77.182 32.261 23.392 16.02 47.512 32.53 78.013 32.53Z"/>
    <path fill="#fff" fill-opacity=".5" d="M9.315 100.294c30.5 0 54.62-16.522 77.972-32.494 23.149-15.856 47.097-32.261 77.172-32.261 30.075 0 54.024 16.382 77.183 32.26 12.384 8.496 25.214 17.284 38.874 23.485l.547-1.638c-13.539-6.143-26.328-14.896-38.672-23.403-23.29-15.984-47.452-32.506-77.972-32.506-30.521 0-54.621 16.522-77.973 32.506C63.299 82.1 39.36 98.493 9.275 98.493c-30.085 0-54.023-16.382-77.182-32.25-23.29-15.984-47.452-32.506-77.972-32.506v1.755c30.085 0 54.023 16.382 77.182 32.26 23.392 16.02 47.512 32.542 78.013 32.542Z"/>
    <path fill="#fff" fill-opacity=".5" d="M9.315 88.523c30.5 0 54.62-16.522 77.972-32.495 23.149-15.867 47.097-32.26 77.172-32.26 30.075 0 54.024 16.381 77.183 32.26 12.384 8.495 25.214 17.283 38.874 23.485l.547-1.65c-13.539-6.143-26.328-14.896-38.672-23.403-23.29-15.972-47.452-32.495-77.972-32.495-30.521 0-54.621 16.523-77.973 32.507C63.299 70.327 39.36 86.72 9.275 86.72c-30.085 0-54.023-16.382-77.182-32.25-23.29-15.983-47.452-32.506-77.972-32.506v1.756c30.085 0 54.023 16.381 77.182 32.26 23.392 16.031 47.512 32.542 78.013 32.542Z"/>
    <path fill="#fff" fill-opacity=".5" d="M9.315 76.751c30.5 0 54.62-16.522 77.972-32.506 23.149-15.856 47.097-32.25 77.172-32.25 30.075 0 54.024 16.383 77.183 32.25 12.384 8.507 25.214 17.294 38.874 23.496l.547-1.58c-13.539-6.154-26.328-14.895-38.672-23.402-23.29-15.973-47.452-32.495-77.972-32.495-30.521 0-54.621 16.522-77.973 32.495-23.148 15.867-47.087 32.26-77.172 32.26-30.085 0-54.023-16.382-77.182-32.26-23.29-15.973-47.452-32.495-77.972-32.495v1.755c30.085 0 54.023 16.382 77.182 32.25C-45.306 60.228-21.186 76.75 9.315 76.75Z"/>
    <path fill="#fff" fill-opacity=".5" d="M9.315 64.991c30.5 0 54.62-16.522 77.972-32.506C110.436 16.63 134.384.235 164.459.235c30.075 0 54.024 16.383 77.183 32.25 12.384 8.483 25.214 17.294 38.874 23.473l.547-1.627c-13.539-6.155-26.328-14.907-38.672-23.402-23.29-15.973-47.452-32.495-77.972-32.495-30.521 0-54.621 16.522-77.973 32.495-23.148 15.855-47.087 32.26-77.172 32.26-30.085 0-54.023-16.382-77.182-32.26-23.29-15.973-47.452-32.495-77.972-32.495V.189c30.085 0 54.023 16.382 77.182 32.25C-45.306 48.456-21.186 64.99 9.315 64.99Z"/>
    <path fill="#fff" fill-opacity=".5" d="M9.315 53.208c30.5 0 54.62-16.522 77.972-32.506 23.149-15.856 47.097-32.25 77.172-32.25 30.075 0 54.024 16.383 77.183 32.25 12.384 8.495 25.214 17.283 38.874 23.484l.547-1.626c-13.539-6.155-26.328-14.908-38.672-23.403-23.29-15.972-47.452-32.495-77.972-32.495-30.521 0-54.621 16.523-77.973 32.495-23.148 15.855-47.087 32.26-77.172 32.26-30.085 0-54.023-16.381-77.182-32.26-23.29-15.972-47.452-32.495-77.972-32.495v1.755c30.085 0 54.023 16.382 77.182 32.25 23.392 16.019 47.512 32.541 78.013 32.541Z"/>
    <path fill="#fff" fill-opacity=".5" d="M9.315 41.425c30.5 0 54.62-16.523 77.972-32.495 23.149-15.855 47.097-32.26 77.172-32.26 30.075 0 54.024 16.381 77.183 32.26 12.384 8.495 25.214 17.283 38.874 23.485l.547-1.627c-13.539-6.155-26.328-14.907-38.672-23.403-23.29-15.984-47.452-32.506-77.972-32.506-30.521 0-54.621 16.522-77.973 32.506-23.148 15.856-47.087 32.25-77.172 32.25-30.085 0-54.023-16.382-77.182-32.25C-91.198-8.599-115.36-25.12-145.88-25.12v1.755c30.085 0 54.023 16.382 77.182 32.26 23.392 16.008 47.512 32.53 78.013 32.53Z"/>
    <path fill="#fff" fill-opacity=".5" d="M9.315 29.653c30.5 0 54.62-16.522 77.972-32.495 23.149-15.855 47.097-32.26 77.172-32.26 30.075 0 54.004 16.405 77.162 32.225 12.405 8.53 25.235 17.318 38.895 23.52l.547-1.638c-13.539-6.143-26.328-14.896-38.672-23.403-23.29-15.984-47.452-32.506-77.972-32.506-30.521 0-54.621 16.522-77.973 32.506-23.148 15.855-47.087 32.25-77.172 32.25-30.085 0-54.023-16.383-77.182-32.25-23.29-15.984-47.452-32.506-77.972-32.506v1.755c30.085 0 54.023 16.382 77.182 32.26 23.392 16.02 47.512 32.542 78.013 32.542Z"/>
    <path fill="#fff" fill-opacity=".5" d="M9.315 17.881c30.5 0 54.62-16.522 77.972-32.494 23.128-15.867 47.077-32.26 77.152-32.26 30.075 0 54.024 16.393 77.182 32.295 12.405 8.46 25.235 17.248 38.895 23.403l.547-1.639c-13.539-6.143-26.328-14.895-38.672-23.402C219.06-32.13 194.939-48.63 164.439-48.63s-54.621 16.522-77.972 32.506C63.318-.267 39.38 16.127 9.295 16.127c-30.086 0-54.024-16.383-77.183-32.25-23.29-15.984-47.452-32.506-77.972-32.506v1.755c30.085 0 54.024 16.382 77.182 32.26C-45.306 1.36-21.186 17.882 9.315 17.882Z"/>
    <path fill="#fff" fill-opacity=".5" d="M9.315 6.11c30.5 0 54.62-16.522 77.972-32.506 23.128-15.856 47.077-32.25 77.152-32.25 30.075 0 54.024 16.382 77.182 32.25 12.405 8.506 25.235 17.294 38.895 23.52l.547-1.639c-13.539-6.155-26.328-14.896-38.672-23.403-23.29-15.972-47.452-32.494-77.972-32.494-30.521 0-54.621 16.522-77.973 32.494C63.299-12.05 39.36 4.343 9.275 4.343c-30.085 0-54.023-16.382-77.182-32.26-23.29-15.973-47.452-32.495-77.972-32.495v1.755c30.085 0 54.023 16.382 77.182 32.249C-45.306-10.412-21.186 6.11 9.315 6.11Z"/>
  </g>
  <defs>
    <clipPath id="a">
      <path fill="#fff" d="M0 0h401v337H0z" transform="translate(1079 -54)"/>
    </clipPath>
    <clipPath id="b">
      <path fill="#fff" d="M0 0h401v337H0z" transform="translate(276 -54)"/>
    </clipPath>
    <clipPath id="c">
      <path fill="#fff" d="M0 0h402v337H0z" transform="matrix(-1 0 0 1 1079 -54)"/>
    </clipPath>
    <clipPath id="d">
      <path fill="#fff" d="M0 0h401v337H0z" transform="matrix(-1 0 0 1 276 -54)"/>
    </clipPath>
  </defs>
</svg>
